<svg xmlns="http://www.w3.org/2000/svg" viewBox="0 0 192 192">
  <defs>
    <linearGradient id="space" x1="0" y1="0" x2="0" y2="1">
      <stop offset="0" stop-color="#070b1c"/>
      <stop offset="1" stop-color="#0b0a12"/>
    </linearGradient>
    <radialGradient id="day" cx=".32" cy=".38" r=".9">
      <stop offset="0" stop-color="#a6d8f8"/>
      <stop offset=".55" stop-color="#3178c0"/>
      <stop offset="1" stop-color="#16457c"/>
    </radialGradient>
    <radialGradient id="atmo" cx=".5" cy=".5" r=".5">
      <stop offset=".78" stop-color="#7dd5f5" stop-opacity="0"/>
      <stop offset=".92" stop-color="#7dd5f5" stop-opacity=".35"/>
      <stop offset="1" stop-color="#7dd5f5" stop-opacity="0"/>
    </radialGradient>
    <filter id="soft"><feGaussianBlur stdDeviation="3"/></filter>
    <clipPath id="disk"><circle cx="96" cy="100" r="62"/></clipPath>
  </defs>

  <rect width="192" height="192" rx="28" fill="url(#space)"/>

  <!-- stars -->
  <g fill="#cfe8ff">
    <circle cx="26" cy="30" r="1.3" opacity=".8"/>
    <circle cx="62" cy="16" r="1" opacity=".6"/>
    <circle cx="122" cy="14" r="1.1" opacity=".7"/>
    <circle cx="164" cy="28" r="1.3" opacity=".8"/>
    <circle cx="178" cy="72" r="1" opacity=".5"/>
    <circle cx="14" cy="96" r="1" opacity=".5"/>
    <circle cx="20" cy="160" r="1.1" opacity=".6"/>
    <circle cx="172" cy="150" r="1.2" opacity=".65"/>
    <circle cx="146" cy="178" r="1" opacity=".5"/>
    <circle cx="88" cy="176" r=".9" opacity=".45"/>
  </g>

  <!-- atmosphere halo -->
  <circle cx="96" cy="100" r="74" fill="url(#atmo)"/>

  <!-- day disk -->
  <circle cx="96" cy="100" r="62" fill="url(#day)"/>

  <!-- night side: right of the terminator (arc bulging toward the day side) -->
  <g clip-path="url(#disk)">
    <path d="M96,38 A14,62 0 0 0 96,162 L158,162 L158,38 Z" fill="#060a16" opacity=".96"/>
    <!-- city lights on the night side -->
    <g fill="#ffd780">
      <circle cx="118" cy="84" r="1.1" opacity=".8"/>
      <circle cx="130" cy="100" r=".9" opacity=".7"/>
      <circle cx="122" cy="118" r="1" opacity=".75"/>
      <circle cx="138" cy="86" r=".8" opacity=".6"/>
      <circle cx="112" cy="136" r=".9" opacity=".6"/>
      <circle cx="136" cy="126" r=".8" opacity=".55"/>
    </g>
    <!-- graticule -->
    <g stroke="#dff2ff" stroke-width="1" fill="none" opacity=".22">
      <ellipse cx="96" cy="100" rx="62" ry="62"/>
      <ellipse cx="96" cy="100" rx="40" ry="62"/>
      <ellipse cx="96" cy="100" rx="14" ry="62"/>
      <line x1="34" y1="100" x2="158" y2="100"/>
      <path d="M40,69 Q96,55 152,69"/>
      <path d="M40,131 Q96,145 152,131"/>
    </g>
  </g>

  <!-- THE GRAYLINE: glowing amber terminator -->
  <path d="M96,38 A14,62 0 0 0 96,162" stroke="#ffb300" stroke-width="9" fill="none" opacity=".35" filter="url(#soft)"/>
  <path d="M96,38 A14,62 0 0 0 96,162" stroke="#ffcf60" stroke-width="3" fill="none" stroke-linecap="round"/>

  <!-- limb line -->
  <circle cx="96" cy="100" r="62" fill="none" stroke="#9fd4f0" stroke-width="1.2" opacity=".5"/>
</svg>
