<svg xmlns="http://www.w3.org/2000/svg" viewBox="0 0 100 100">
<defs><clipPath id="cb"><circle cx="50" cy="49" r="40"/></clipPath></defs>
<rect width="100" height="100" rx="20" fill="#0B1325"/>
<circle cx="50" cy="49" r="40" fill="#173a6b"/>
<g transform="translate(50 49) scale(1.2121) translate(-50 -49)"><path fill="#FF9F1C" fill-rule="evenodd" d="M70.0 60.6L69.6 60.9L69.5 60.8L69.7 60.6L69.7 60.4L69.9 60.3L70.0 60.3L70.0 60.6ZM67.2 57.5L67.2 57.6L66.9 57.7L66.6 57.8L66.4 57.7L66.5 57.6L66.9 57.5L67.1 57.4L67.2 57.5ZM61.8 59.5L61.6 59.5L61.4 59.6L61.1 59.4L61.1 59.3L61.4 59.3L61.5 59.2L61.8 59.1L62.0 59.2L62.2 59.4L61.8 59.5ZM63.8 57.8L64.2 57.7L64.3 57.6L64.7 57.5L64.9 57.5L65.1 57.4L65.3 57.6L65.5 57.6L65.5 57.7L65.7 57.6L65.9 57.7L65.9 58.0L65.5 58.0L65.3 58.1L65.2 58.1L65.2 58.3L64.9 58.3L64.8 58.2L64.7 58.4L64.6 58.8L64.5 58.7L64.4 58.6L64.0 58.6L63.8 58.7L63.5 58.8L63.3 59.0L63.0 58.8L63.1 58.7L63.5 58.7L63.9 58.5L64.0 58.4L63.7 58.2L63.7 58.0L63.4 58.0L63.5 57.9L63.8 57.8ZM23.9 51.4L23.9 51.5L23.9 51.4L23.9 51.3L23.9 51.0L24.0 50.9L24.0 50.9L24.1 50.8L24.1 50.7L24.2 51.0L24.2 51.1L24.3 51.2L24.3 51.5L24.1 51.4L23.9 51.4ZM24.1 50.6L23.9 50.5L24.0 50.3L24.0 50.2L24.1 50.3L24.1 50.5L24.1 50.6ZM23.8 49.7L23.7 49.8L23.6 49.6L23.6 49.4L23.7 49.4L23.7 49.5L23.8 49.7ZM23.4 48.9L23.3 49.0L23.3 48.8L23.4 48.7L23.4 48.8L23.4 48.9ZM60.1 57.1L60.3 57.3L60.8 57.2L61.0 57.2L61.5 57.5L61.8 57.6L61.9 57.6L62.2 57.6L62.3 57.7L62.6 57.6L63.0 57.8L62.9 57.9L62.6 58.1L62.3 58.2L62.0 58.3L61.3 58.5L61.6 58.2L61.3 58.0L61.0 58.1L60.8 58.0L60.6 57.7L60.4 57.7L59.8 57.7L59.7 57.6L59.1 57.7L58.8 57.6L59.0 57.4L58.5 57.5L58.2 57.8L58.0 57.9L57.9 58.1L57.7 58.1L57.5 58.2L57.7 57.9L57.7 57.7L57.9 57.5L58.3 57.3L58.6 57.3L58.8 57.1L59.2 57.1L59.5 57.1L60.1 57.1ZM61.1 56.4L61.0 56.4L60.8 56.1L60.6 56.0L60.6 55.6L60.7 55.6L61.0 56.0L61.1 56.4ZM60.7 54.8L60.1 55.0L60.1 54.8L60.3 54.8L60.6 54.7L60.7 54.8ZM61.0 54.7L61.1 55.2L61.0 55.1L60.9 54.8L60.7 54.7L60.7 54.5L61.0 54.7ZM72.5 24.9L72.5 24.9L72.3 24.7L72.1 24.5L72.1 24.5L72.3 24.7L72.5 24.8L72.4 24.8L72.7 25.1L72.5 24.9ZM73.6 26.3L73.9 26.6L74.0 26.7L74.2 26.9L74.2 27.0L74.3 27.1L74.3 27.3L74.2 27.2L73.9 26.8L73.8 26.6L73.6 26.3ZM73.6 27.2L73.8 27.3L74.2 27.6L74.3 27.7L74.4 27.9L74.4 28.0L74.0 27.6L73.8 27.6L73.8 27.4L73.6 27.2ZM27.2 25.3L27.1 25.3L26.9 25.5L26.8 25.5L27.0 25.3L27.4 25.0L27.4 25.0L28.1 24.3L28.1 24.3L28.3 24.2L28.0 24.4L27.9 24.5L27.9 24.6L28.1 24.5L28.5 24.2L28.7 24.1L28.4 24.4L27.9 24.8L27.7 25.0L27.5 25.0L27.2 25.3ZM73.2 26.9L73.5 27.2L73.5 27.3L73.3 27.1L73.2 27.0L72.9 26.7L73.2 26.9ZM28.9 24.3L28.7 24.5L28.8 24.6L28.3 24.9L28.5 24.6L28.3 24.6L28.9 24.1L28.6 24.2L28.8 24.0L29.2 23.7L29.4 23.7L29.1 23.9L29.5 23.7L29.8 23.6L29.2 24.1L28.9 24.3ZM63.1 42.0L63.4 42.0L63.7 41.9L63.7 42.2L63.5 42.2L63.0 42.2L62.8 42.0L62.9 41.8L63.1 42.0ZM63.0 40.4L62.9 40.5L62.5 40.6L62.0 40.4L62.1 40.3L62.6 40.3L63.0 40.3L63.0 40.4ZM40.9 42.3L40.7 42.4L40.3 41.9L40.2 41.7L40.0 41.4L40.0 41.3L39.7 41.0L39.7 40.6L39.8 40.6L40.1 40.8L40.2 41.0L40.5 41.1L40.6 41.3L40.6 41.6L40.9 41.9L40.9 42.3ZM64.3 38.8L64.3 39.4L64.4 39.0L64.6 39.0L64.6 39.3L65.0 39.3L65.0 39.1L65.3 39.0L65.5 39.5L65.6 39.3L65.9 39.5L66.1 39.8L66.3 40.3L66.2 40.4L65.9 40.4L65.7 39.9L65.7 40.0L65.6 40.6L65.4 40.6L65.4 40.3L65.1 40.3L64.8 40.5L64.2 40.8L64.1 40.7L64.2 40.4L64.0 40.4L64.0 39.9L63.8 38.9L63.9 38.6L64.0 38.3L64.1 38.2L64.2 38.5L64.3 38.8ZM39.2 38.4L39.6 38.4L39.1 39.0L39.2 39.6L39.1 39.5L39.1 39.1L39.1 38.9L39.0 38.7L39.0 38.5L39.2 38.2L39.2 38.4ZM31.5 23.1L30.6 23.6L31.0 23.2L30.5 23.3L29.9 23.8L29.7 23.9L30.1 23.6L29.9 23.6L30.3 23.4L30.6 23.2L31.1 23.0L31.3 23.0L31.8 22.7L32.2 22.5L32.8 22.4L32.9 22.5L33.1 22.4L33.1 22.4L32.8 22.5L32.3 22.8L31.9 22.9L31.5 23.1ZM70.2 28.2L70.5 28.8L70.4 29.0L69.9 28.6L69.5 28.5L69.1 27.9L68.9 27.7L68.8 27.5L69.1 27.4L69.5 27.7L69.8 27.8L70.2 28.2ZM67.3 23.5L67.7 23.7L67.7 23.9L67.5 23.9L67.1 23.5L67.3 23.5ZM35.5 34.0L35.2 34.1L35.2 33.9L35.3 33.7L35.6 33.7L35.8 33.7L35.9 33.9L35.9 34.0L35.5 34.0ZM67.1 26.0L67.6 26.4L67.6 26.2L67.5 26.0L67.9 26.1L68.4 26.6L68.4 26.4L68.9 26.4L69.0 26.3L69.4 26.4L69.6 26.5L69.6 26.3L69.9 26.4L70.1 26.6L70.3 26.6L70.6 26.9L70.6 27.3L70.9 27.8L70.8 27.8L71.0 28.0L71.0 28.2L71.2 28.5L71.1 28.5L70.6 27.9L70.5 27.7L70.4 28.0L70.2 27.9L70.1 27.7L69.8 27.6L69.5 27.4L69.6 27.2L69.3 27.0L69.0 27.0L69.0 27.2L68.9 27.2L68.6 27.0L68.6 27.0L68.8 27.2L68.3 27.0L68.1 27.0L67.6 26.7L67.1 26.4L67.2 26.2L67.1 26.0ZM34.8 30.9L34.7 30.9L34.7 30.7L34.7 30.5L34.9 30.7L35.0 30.8L34.8 30.9ZM55.2 35.4L55.2 35.7L55.1 35.8L55.0 35.6L55.0 35.3L55.1 35.4L55.2 35.4ZM54.4 35.3L54.2 35.6L54.0 35.6L53.9 35.5L54.1 35.3L54.4 35.2L54.4 35.3ZM36.1 28.7L36.0 28.9L36.2 28.9L36.1 29.1L36.1 29.3L36.0 29.4L35.8 29.3L35.9 29.1L35.9 29.0L35.9 28.9L35.8 28.9L36.1 28.7ZM53.3 34.0L53.4 34.2L53.4 34.0L53.6 34.2L53.9 34.3L54.2 34.5L54.4 34.7L54.5 34.6L54.7 34.7L54.6 34.9L54.1 34.8L54.0 34.6L53.8 35.0L53.5 35.3L53.3 34.9L53.0 35.1L53.2 34.9L53.1 34.4L53.1 34.0L53.3 34.0ZM63.1 26.3L63.4 26.5L63.8 26.4L64.2 26.8L64.4 27.4L64.5 27.6L64.3 27.7L64.1 28.1L63.9 27.9L63.6 28.1L63.6 27.8L63.4 27.7L63.1 27.9L62.8 27.6L62.8 27.4L63.3 27.3L63.1 27.0L63.2 26.8L63.1 26.5L63.1 26.3ZM55.1 32.8L54.8 32.9L54.7 32.7L54.6 32.3L54.8 32.3L55.0 32.3L55.1 32.6L55.1 32.7L55.1 32.8ZM37.2 27.5L37.2 27.6L37.6 27.4L37.6 27.8L37.4 28.3L37.1 28.3L36.8 28.1L36.3 28.4L36.2 28.4L36.2 28.2L36.3 28.0L36.4 27.7L36.6 27.6L36.6 27.4L36.5 27.3L36.6 27.1L36.8 27.1L36.7 27.0L36.5 27.1L36.2 27.1L38.3 26.2L38.0 26.7L37.6 27.3L37.2 27.5ZM50.7 32.5L50.6 32.6L50.3 32.5L50.1 32.5L49.9 32.3L50.0 32.2L50.1 32.0L50.4 32.1L50.5 32.2L50.5 32.3L50.7 32.5ZM39.2 25.9L39.2 25.7L39.4 25.6L39.7 25.7L39.2 25.9ZM39.4 26.0L39.2 25.9L39.7 25.7L39.7 25.7L39.7 25.8L39.7 26.0L39.5 26.0L39.4 26.0ZM51.7 32.2L51.8 32.7L52.0 32.3L52.3 32.6L52.3 32.9L52.6 33.3L52.7 32.8L52.8 32.4L52.6 31.9L52.9 31.8L53.2 31.9L53.6 32.0L53.7 32.3L53.6 32.6L53.8 32.9L53.9 33.1L53.5 33.5L53.3 33.6L53.0 33.5L53.0 33.8L52.9 34.2L52.9 34.5L52.6 34.8L52.3 35.0L52.1 35.2L52.1 35.5L51.9 35.6L51.6 36.0L51.3 36.6L51.2 37.1L51.3 37.8L51.7 37.7L51.9 38.3L52.1 38.6L52.5 38.5L53.2 38.8L53.4 38.8L53.8 39.2L54.2 39.2L54.6 39.4L55.0 39.3L55.4 39.4L55.5 39.8L55.7 40.3L56.2 40.9L56.8 41.3L57.0 41.1L57.0 40.5L56.5 39.6L56.3 39.4L56.7 39.1L56.9 38.6L57.0 38.2L56.8 37.9L56.5 37.5L56.0 37.1L56.1 36.5L55.8 36.1L55.5 35.3L55.6 35.2L56.1 35.2L56.3 35.1L56.5 35.0L56.8 35.1L57.2 35.2L57.4 35.4L57.8 35.4L58.0 35.8L58.5 36.4L58.7 36.3L59.1 36.5L59.2 36.1L59.2 35.5L59.2 35.2L59.7 35.5L60.3 36.0L61.0 36.5L61.1 36.8L61.6 37.0L62.0 37.1L62.5 37.1L62.7 37.1L63.1 37.4L63.3 37.4L63.5 37.4L63.9 38.0L63.9 38.4L63.7 38.6L63.4 39.0L63.3 39.6L62.9 40.0L62.1 40.2L61.6 40.3L61.4 40.5L61.2 41.0L60.9 41.3L60.8 42.3L60.6 42.9L60.8 42.7L61.1 41.8L61.6 41.1L62.1 40.9L62.4 41.0L62.3 41.4L62.6 42.0L63.0 42.3L63.5 42.4L63.9 42.0L64.0 41.3L64.2 41.6L64.5 41.7L64.3 42.3L63.7 43.0L63.5 43.3L63.2 43.8L63.0 43.9L62.8 43.5L63.2 42.8L62.6 43.0L62.3 43.3L62.4 43.4L62.2 43.8L61.8 44.1L61.5 44.5L61.4 44.9L61.5 45.0L61.6 45.2L61.7 45.6L61.9 45.5L61.8 45.3L61.9 45.4L62.0 45.5L61.7 45.7L61.5 45.8L61.3 46.0L61.2 46.0L60.9 46.1L60.7 46.4L61.2 46.1L61.3 46.2L60.9 46.5L60.6 46.6L60.5 46.7L60.7 46.7L60.7 47.1L60.5 47.6L60.4 47.5L60.3 47.5L60.1 47.3L60.3 47.7L60.4 47.8L60.5 48.0L60.4 48.1L60.3 48.7L60.3 48.3L60.0 48.1L59.8 47.7L59.9 47.9L60.0 48.2L59.8 48.2L60.1 48.4L60.2 48.8L60.3 48.9L60.4 49.0L60.6 49.6L60.4 50.2L60.1 50.4L59.8 50.8L59.6 50.9L59.4 51.1L59.3 51.3L58.9 51.7L58.7 52.2L58.6 52.6L58.5 52.9L58.7 53.3L59.0 53.7L59.2 54.1L59.3 54.4L59.6 54.9L59.6 55.3L59.6 55.5L59.5 55.9L59.4 56.0L59.2 56.0L59.0 55.7L58.8 55.7L58.5 55.2L58.2 54.8L58.1 54.6L58.2 54.2L57.9 54.0L57.6 53.6L57.4 53.5L56.9 53.8L56.8 53.9L56.5 53.6L56.2 53.5L55.7 53.6L55.2 53.7L54.9 53.7L54.7 53.9L54.8 54.0L54.8 54.2L54.9 54.3L54.8 54.3L54.6 54.4L54.4 54.5L54.1 54.4L53.6 54.2L53.2 54.2L52.9 54.1L52.6 54.3L52.2 54.4L51.8 54.8L51.2 55.1L50.9 55.4L50.8 55.7L50.8 56.0L50.8 56.3L50.9 56.5L50.7 57.0L50.7 57.3L50.6 58.2L50.6 58.4L50.7 58.7L50.9 59.0L51.0 59.4L51.3 59.8L51.4 60.1L51.7 60.3L52.3 60.4L52.5 60.6L52.9 60.5L53.4 60.5L53.7 60.3L54.1 60.2L54.4 59.9L54.5 59.6L54.6 59.1L54.7 59.0L55.0 58.8L55.6 58.7L56.0 58.6L56.4 58.4L56.5 58.5L56.5 58.9L56.2 59.2L56.1 59.5L56.2 59.6L56.1 59.9L56.0 60.3L55.9 60.2L55.8 60.3L55.9 60.2L55.9 60.5L55.8 60.7L56.0 60.7L55.9 60.9L55.9 61.0L55.9 61.3L55.8 61.4L55.6 61.4L55.5 61.6L55.8 61.7L55.8 61.6L55.9 61.7L56.0 61.7L56.1 61.6L56.2 61.6L56.4 61.6L56.7 61.6L56.9 61.5L57.0 61.5L57.1 61.3L57.3 61.4L57.5 61.4L57.6 61.4L57.7 61.2L58.0 61.3L58.1 61.3L58.2 61.4L58.3 61.5L58.5 61.6L58.7 61.6L58.7 61.8L58.7 61.9L58.7 62.0L58.6 62.2L58.6 62.4L58.5 62.7L58.6 62.8L58.6 63.0L58.5 63.1L58.6 63.3L58.6 63.4L58.4 63.6L58.5 63.8L58.6 63.8L58.7 64.1L59.0 64.2L59.2 64.4L59.4 64.6L59.4 64.7L59.7 64.6L59.7 64.5L59.8 64.7L60.1 64.5L60.4 64.4L60.7 64.2L60.8 64.1L61.1 64.0L61.4 64.1L61.6 64.0L61.8 64.2L62.1 64.2L62.3 64.1L62.7 63.7L62.9 63.6L62.9 63.4L63.0 63.0L63.2 62.7L63.5 62.6L63.6 62.5L63.9 62.4L64.4 62.0L64.6 61.9L64.7 61.5L65.0 61.5L65.1 61.6L65.0 61.7L65.0 61.9L64.7 62.1L64.9 62.2L65.0 62.5L64.8 62.8L64.9 63.2L65.1 63.1L65.3 62.6L65.1 62.6L65.0 62.2L65.6 61.7L65.5 61.6L65.7 61.4L65.8 61.7L66.3 61.5L66.6 61.7L66.6 61.8L67.0 61.7L67.5 61.5L67.9 61.5L68.3 61.4L68.4 61.2L68.4 61.1L69.0 60.7L69.6 60.5L69.2 60.8L69.3 61.0L69.7 60.8L70.1 60.9L70.2 61.3L70.5 61.1L70.7 61.1L71.0 61.2L71.3 61.3L71.3 61.6L71.5 61.5L71.7 61.6L71.9 61.7L72.4 61.5L72.4 61.4L72.8 61.2L73.2 61.1L73.4 60.9L73.7 60.9L74.1 61.0L74.2 61.1L74.4 61.0L74.5 61.3L74.7 61.9L74.9 61.9L74.9 62.1L74.7 62.7L74.8 62.7L75.4 62.4L75.5 62.8L75.7 62.3L76.1 62.0L76.7 61.8L76.9 62.0L76.8 62.3L77.2 61.8L77.8 61.5L78.2 61.0L78.7 60.8L79.0 61.0L79.2 60.8L79.4 60.5L79.5 60.6L79.5 61.0L79.5 61.2L79.3 62.0L79.1 62.5L78.6 63.5L78.3 64.1L78.0 64.7L77.9 64.9L77.8 65.2L77.5 65.9L77.3 66.5L77.2 66.8L77.0 67.1L76.7 67.7L76.2 68.4L76.0 68.8L75.7 69.2L75.5 69.4L75.2 69.7L74.6 70.3L74.3 70.6L73.9 71.0L73.4 71.6L72.9 72.1L72.7 72.4L72.7 72.4L72.4 72.8L72.2 73.0L71.9 73.3L71.2 74.0L70.6 74.5L70.3 74.7L69.9 75.1L69.6 75.3L69.3 75.5L68.8 75.9L68.6 76.0L68.4 76.2L68.1 76.3L67.9 76.4L67.8 76.4L67.7 76.5L67.9 76.5L67.7 76.6L67.9 76.6L67.8 76.7L67.1 77.1L66.4 77.5L65.7 77.9L65.4 78.0L65.3 78.1L65.1 78.3L65.0 78.3L64.7 78.5L64.4 78.6L64.0 78.8L63.8 78.9L63.7 79.0L63.9 78.9L64.1 78.8L64.1 78.8L63.8 79.0L63.3 79.2L63.1 79.3L62.8 79.4L62.5 79.5L62.1 79.7L61.9 79.8L61.9 79.8L58.7 80.8L59.0 80.8L59.5 80.6L59.0 80.7L59.5 80.6L59.9 80.4L60.2 80.3L60.8 80.0L60.5 80.1L60.2 80.3L60.0 80.3L60.4 80.1L60.8 79.9L61.1 79.7L61.2 79.6L61.3 79.4L61.4 79.4L61.9 79.1L62.5 78.6L62.9 78.3L63.0 78.0L63.2 77.8L63.3 77.5L63.7 77.2L64.1 76.6L64.5 76.0L64.9 75.3L65.0 74.8L65.0 74.4L64.6 74.4L64.6 74.2L63.6 74.2L62.9 74.1L62.5 74.0L62.3 73.7L62.4 73.6L62.0 73.3L61.6 72.7L61.2 72.1L61.0 71.9L60.7 71.7L60.4 71.5L60.0 71.4L60.2 71.2L60.0 70.8L60.1 70.5L60.6 70.1L60.8 69.8L60.7 69.6L60.5 69.9L60.2 69.8L60.4 69.6L60.3 69.2L60.4 69.1L60.5 68.8L60.7 68.5L60.7 68.3L60.9 68.1L61.4 67.8L61.3 67.7L61.5 67.7L61.5 67.4L61.6 67.3L61.9 67.1L62.1 66.8L62.3 66.5L62.1 66.5L62.2 66.1L62.0 65.8L62.1 65.5L62.0 65.2L61.8 65.0L61.7 64.9L61.5 64.7L61.6 64.5L61.5 64.4L61.4 64.4L61.0 64.3L60.8 64.4L60.7 64.5L60.5 64.8L60.4 64.8L60.4 64.9L60.6 65.1L60.5 65.2L60.4 65.3L60.2 65.4L60.0 65.1L60.0 65.2L59.8 65.2L59.7 65.0L59.5 65.0L59.3 65.0L59.1 65.1L59.1 65.2L59.0 65.1L58.8 65.0L58.6 64.9L58.6 64.8L58.6 64.7L58.5 64.6L58.3 64.6L58.0 64.6L58.0 64.4L57.9 64.3L57.9 64.5L57.8 64.6L57.7 64.6L57.4 64.5L57.4 64.4L57.4 64.3L57.4 64.1L57.3 64.1L57.4 63.9L57.3 63.7L56.9 63.6L56.8 63.5L56.6 63.3L56.3 63.1L56.4 63.0L56.4 63.1L56.6 63.1L56.4 62.9L56.2 62.9L56.2 63.0L55.8 63.1L55.6 63.0L55.5 62.9L55.1 62.9L55.0 62.8L54.7 62.7L54.3 62.8L54.1 62.7L53.7 62.5L53.1 62.0L52.9 61.9L52.4 61.7L52.0 61.8L51.6 62.0L51.4 62.1L51.0 61.9L50.5 61.8L50.1 61.6L49.6 61.5L49.0 61.3L48.5 61.0L48.4 60.8L48.1 60.8L47.5 60.6L47.3 60.3L46.7 60.0L46.5 59.7L46.4 59.4L46.5 59.3L46.5 59.2L46.7 59.0L46.7 58.9L46.4 58.6L46.5 58.4L46.2 58.0L45.8 57.5L45.3 57.0L45.1 56.6L44.7 56.3L44.6 56.2L44.7 55.9L44.4 55.7L44.2 55.4L44.2 55.0L43.9 54.9L43.6 54.6L43.4 54.2L43.4 54.1L43.2 53.6L43.1 53.2L43.1 53.0L42.8 52.7L42.7 52.7L42.4 52.5L42.2 52.7L42.3 53.0L42.2 53.4L42.4 53.7L42.8 54.1L42.8 54.3L42.9 54.3L42.9 54.5L43.0 54.6L43.1 54.9L43.2 55.1L43.3 55.3L43.6 55.6L43.6 56.1L43.8 56.5L43.9 56.7L43.9 56.9L44.2 57.0L44.4 57.4L44.5 57.6L44.5 57.7L44.2 57.8L44.1 57.8L44.1 57.4L43.7 57.2L43.5 56.8L43.1 56.6L43.2 56.3L43.2 55.9L42.9 55.7L42.6 55.4L42.4 55.3L42.1 55.1L42.0 54.7L42.2 54.8L42.4 54.6L42.4 54.3L42.1 53.9L41.8 53.6L41.7 53.2L41.6 52.8L41.5 52.4L41.4 51.8L41.3 51.5L41.1 51.1L40.9 51.1L40.8 50.8L40.6 50.8L40.5 50.6L40.1 50.4L39.9 50.4L40.0 50.0L39.7 49.3L39.5 48.5L39.5 48.4L39.4 48.1L39.3 47.5L39.3 47.1L39.2 46.8L39.5 46.3L39.5 45.8L39.6 45.3L39.9 44.9L40.3 43.9L40.4 43.2L40.5 42.7L40.5 42.3L40.5 42.3L41.0 42.6L41.0 43.2L41.1 43.0L41.3 42.5L41.2 42.2L41.2 42.1L40.7 41.4L40.6 41.1L40.1 40.7L40.1 40.2L40.2 39.8L40.0 39.5L40.1 39.0L39.9 38.6L40.1 38.2L40.0 37.9L39.8 37.7L39.9 37.3L39.8 36.7L40.0 36.2L39.8 36.0L39.4 35.9L39.2 35.6L39.1 34.9L38.9 34.7L38.7 34.3L38.3 34.2L38.1 33.7L38.1 33.3L37.8 33.2L37.5 33.6L37.4 33.5L37.1 33.5L36.8 33.5L36.5 33.5L36.7 33.2L37.2 32.8L37.5 32.9L37.5 32.7L37.2 32.7L36.8 32.9L36.2 33.0L36.1 33.3L35.7 33.4L35.4 33.4L35.0 33.4L34.8 33.6L34.4 33.5L34.1 33.7L33.7 33.6L33.7 33.4L33.4 33.4L33.1 33.3L32.8 33.3L32.5 33.1L32.6 33.0L32.9 33.0L33.1 33.1L33.5 33.1L33.7 33.3L34.0 33.2L34.5 33.2L34.6 33.2L34.9 33.1L35.2 32.9L35.5 32.7L35.3 32.6L35.3 32.5L35.0 32.6L35.1 32.3L35.0 32.4L35.1 32.1L34.8 32.1L34.7 32.0L35.0 31.8L35.2 31.6L35.2 31.5L34.9 31.3L35.1 30.9L35.1 30.8L35.3 30.6L35.5 30.4L35.8 30.2L36.2 30.1L36.4 30.0L36.6 30.1L36.6 30.2L36.9 30.2L36.9 30.3L37.1 30.4L37.3 30.2L37.3 30.0L37.6 30.0L37.6 29.9L37.3 29.8L37.2 29.8L37.2 29.7L37.0 29.5L36.9 29.3L37.1 29.1L37.3 28.7L37.6 28.8L38.0 28.9L38.1 29.0L37.9 29.2L38.1 29.4L38.3 29.1L38.4 28.8L38.5 28.6L38.7 28.3L38.8 28.1L39.0 28.0L39.2 28.2L39.6 28.1L39.8 28.1L40.1 28.0L40.3 28.1L40.7 28.1L40.6 28.3L41.1 28.3L41.2 28.5L41.0 28.7L41.2 28.7L41.3 28.9L41.2 29.0L41.4 29.1L41.5 29.2L41.7 29.5L41.8 29.7L41.9 29.8L42.1 29.9L42.2 30.1L42.3 30.3L42.5 30.6L42.6 30.9L42.7 31.0L43.0 30.9L43.3 30.8L43.5 31.0L43.9 30.9L44.2 31.0L44.3 31.1L44.5 31.1L44.6 30.9L44.7 31.0L44.8 31.5L45.2 31.3L45.1 31.6L45.3 31.6L45.5 31.5L45.6 31.5L45.9 31.8L46.2 32.1L46.5 32.3L46.7 32.3L46.9 32.5L46.5 32.7L46.9 32.9L47.5 33.0L47.7 32.9L47.8 33.2L48.1 32.9L47.9 32.7L48.1 32.6L48.3 32.6L48.5 32.5L48.7 32.6L48.8 33.0L49.1 32.9L49.5 33.2L49.8 33.1L50.1 33.1L50.1 32.8L50.3 32.7L50.6 32.9L50.6 33.3L50.7 32.9L50.9 33.0L51.0 32.5L50.7 32.2L50.5 32.0L50.5 31.4L50.7 31.0L50.9 31.1L51.1 31.3L51.5 31.9L51.3 32.1L51.7 32.2ZM47.5 30.3L47.4 30.5L47.8 30.4L47.9 30.7L48.2 30.4L48.3 30.6L48.3 31.1L48.4 31.0L48.4 30.4L48.6 30.4L48.7 30.5L48.9 30.7L49.0 31.1L49.0 31.5L49.3 31.7L49.6 32.0L49.6 32.2L49.3 32.3L49.4 32.5L49.3 32.6L48.9 32.6L48.6 32.3L48.3 32.4L47.9 32.5L47.3 32.5L47.0 32.5L47.0 32.2L46.7 32.1L46.6 32.1L46.4 31.7L46.6 31.6L46.9 31.6L47.1 31.7L47.4 31.7L47.1 31.5L46.7 31.4L46.4 31.4L46.4 31.2L46.9 31.0L46.6 31.0L46.4 30.8L46.6 30.6L46.8 30.4L47.3 30.2L47.5 30.3ZM49.1 30.3L48.9 30.6L48.7 30.3L48.8 30.2L49.0 30.2L49.1 30.3ZM53.7 30.0L53.8 30.1L53.6 30.2L53.4 30.2L53.3 30.3L53.2 30.3L53.0 30.1L52.9 29.9L53.0 29.9L53.3 29.8L53.7 30.0ZM52.1 30.4L52.3 30.6L52.3 30.2L52.7 30.0L53.1 30.4L53.2 30.7L53.4 30.4L53.5 30.2L54.0 30.4L54.3 30.5L54.4 30.7L54.7 30.5L55.0 30.8L55.5 30.8L55.8 30.9L56.2 31.3L56.0 31.6L56.6 31.8L57.0 31.8L57.5 32.0L57.8 31.9L58.0 32.3L58.0 32.9L57.6 32.9L57.1 32.6L56.8 32.7L57.0 33.0L57.4 33.2L57.8 33.3L57.9 33.3L58.4 33.8L58.5 34.1L58.1 34.1L57.3 33.9L57.9 34.2L58.3 34.4L58.5 34.6L57.7 34.7L57.1 34.5L56.7 34.4L56.7 34.2L56.2 34.1L55.8 34.0L55.9 34.1L55.2 34.4L54.9 34.2L55.0 33.8L55.4 33.7L55.8 33.5L55.6 33.3L55.6 33.1L55.6 32.5L55.5 32.3L55.4 32.2L54.9 32.0L54.5 32.0L54.5 31.8L54.2 31.7L54.0 31.6L53.8 31.5L53.8 31.6L53.5 31.8L52.8 31.8L52.3 31.7L52.0 31.7L51.8 31.6L51.9 31.3L51.7 31.4L51.5 30.9L51.6 30.4L51.7 30.2L52.1 30.0L52.1 30.4ZM49.8 30.1L50.0 30.2L50.3 30.2L50.3 30.3L50.2 30.5L50.4 30.7L50.4 31.2L50.1 31.3L49.9 31.3L49.8 31.1L49.4 30.8L49.4 30.6L49.8 30.7L49.6 30.4L49.8 30.1ZM41.6 21.7L41.7 21.6L41.9 21.4L41.9 21.3L42.0 21.5L42.0 21.6L41.7 21.7L41.6 21.7ZM51.0 30.6L50.8 31.0L50.6 31.0L50.5 30.6L50.5 30.3L50.6 30.1L50.7 30.0L51.0 30.0L51.4 30.1L51.2 30.5L51.0 30.6ZM46.1 30.9L45.6 31.0L45.6 30.7L45.3 30.4L45.5 30.3L45.8 29.9L46.1 29.7L46.1 29.4L46.6 29.4L46.8 29.5L47.1 29.7L47.2 29.8L47.3 30.1L47.1 30.1L46.6 30.4L46.2 30.7L46.1 30.9ZM42.1 22.4L41.9 22.3L42.0 22.1L42.3 22.0L42.5 22.0L42.3 22.2L42.1 22.4ZM50.8 29.6L50.7 29.8L50.5 29.7L50.3 29.6L50.4 29.4L50.6 29.3L50.7 29.4L50.8 29.6ZM42.6 21.9L42.3 21.8L42.5 21.5L42.5 21.3L43.0 21.2L43.4 21.3L43.3 21.5L43.1 21.6L42.6 21.9ZM50.1 28.8L50.2 29.0L50.2 29.2L50.1 29.6L49.9 29.6L49.7 29.6L49.7 29.3L49.5 29.3L49.5 29.0L49.7 29.0L49.9 28.8L50.0 28.8L50.1 28.8ZM48.7 29.0L48.8 29.2L48.9 29.1L49.0 29.1L49.0 29.4L48.9 29.6L48.4 29.6L48.0 29.8L47.7 29.7L47.8 29.5L48.1 29.4L47.5 29.4L47.3 29.2L47.7 28.8L47.8 28.7L48.1 28.9L48.3 29.2L48.5 29.3L48.5 28.8L48.6 28.7L48.7 28.8L48.7 29.0ZM54.3 18.5L54.4 18.5L55.0 18.7L54.9 18.8L55.1 18.9L55.0 19.0L54.8 19.0L54.6 19.1L54.1 19.2L54.3 19.2L53.7 19.3L53.6 19.4L53.2 19.4L52.7 19.4L52.2 19.4L51.9 19.5L51.7 19.4L51.6 19.3L51.7 19.3L52.3 19.3L52.8 19.2L53.4 19.1L53.9 19.0L54.3 18.9L54.5 18.7L54.3 18.5ZM50.6 28.6L50.7 28.7L51.0 28.7L51.1 28.9L51.1 29.1L51.3 29.2L51.4 29.2L51.6 29.2L51.8 29.3L52.0 29.2L52.3 29.0L52.5 29.0L52.7 29.1L52.8 29.3L52.8 29.4L52.6 29.6L52.4 29.6L52.0 29.8L51.7 29.8L51.4 29.7L51.0 29.7L50.9 29.4L50.9 29.2L50.7 29.0L50.4 28.9L50.2 28.8L50.3 28.6L50.6 28.6ZM47.9 28.2L47.8 28.5L47.6 28.7L47.5 28.7L47.2 28.8L46.9 28.8L46.8 28.7L47.2 28.4L47.6 28.2L47.7 28.2L47.9 28.2ZM46.7 19.8L46.6 19.7L46.5 19.8L46.2 19.9L45.8 19.9L45.6 19.9L45.5 19.8L45.5 19.7L45.7 19.4L45.7 19.3L45.5 19.4L45.2 19.4L45.1 19.5L44.9 19.4L45.0 19.5L44.7 19.6L44.2 19.7L44.1 19.7L43.5 20.0L43.8 20.1L43.4 20.2L43.2 20.3L42.9 20.4L42.6 20.4L42.5 20.3L42.0 20.3L41.6 20.4L41.9 20.6L41.6 20.7L41.5 20.9L41.2 21.0L41.2 21.1L41.1 21.3L41.5 21.2L41.6 21.4L40.6 22.3L40.2 22.4L39.8 22.7L39.5 23.1L39.5 23.4L39.2 23.5L38.8 23.5L38.6 23.7L38.7 23.8L38.6 24.1L38.5 24.4L38.6 24.6L38.0 24.9L38.2 25.0L38.5 24.8L38.8 24.8L38.7 25.2L38.7 25.5L38.5 25.9L38.3 26.2L36.2 27.1L36.0 27.0L35.9 26.8L35.7 27.1L35.3 27.4L35.1 27.5L34.9 27.7L34.8 27.7L34.8 27.3L34.5 27.0L34.3 26.9L34.0 26.8L33.7 26.7L33.5 26.7L33.8 26.3L33.4 26.0L33.6 25.8L33.5 25.8L33.6 25.4L33.3 25.5L32.8 25.5L32.6 25.6L32.5 25.8L31.8 26.1L31.8 25.9L31.4 26.0L31.2 26.2L31.1 25.9L30.6 26.1L30.6 25.8L30.1 26.0L29.9 25.8L30.2 25.7L30.9 25.3L32.0 24.7L32.5 24.6L32.8 24.6L33.0 24.6L32.9 24.8L33.5 24.9L33.9 25.1L34.2 25.3L34.8 25.2L34.9 25.0L34.5 25.0L34.1 24.7L34.8 24.4L34.7 24.0L34.1 23.8L33.7 24.1L33.8 23.7L33.9 23.4L34.2 23.4L34.5 23.1L34.3 22.9L34.8 22.4L35.2 21.8L34.8 21.5L34.5 21.0L34.2 21.3L33.9 21.5L33.6 21.6L33.7 21.7L33.5 21.9L32.8 22.3L32.4 22.4L32.2 22.4L31.7 22.6L31.3 22.7L31.0 22.6L30.8 22.7L30.7 22.6L30.7 22.5L30.6 22.5L30.8 22.3L30.9 22.2L31.2 22.0L31.4 21.8L31.3 21.9L31.5 21.7L31.5 21.7L31.5 21.7L31.3 21.8L31.3 21.8L31.3 21.8L31.4 21.7L31.5 21.7L34.9 19.6L38.6 18.0L42.4 16.9L46.3 16.2L50.3 16.0L54.3 16.3L58.2 17.0L62.0 18.2L65.6 19.9L69.0 22.0L72.1 24.5L74.9 27.3L77.3 30.5L79.3 33.9L80.9 37.5L82.1 41.3L82.8 45.2L82.8 45.6L82.9 46.0L82.9 46.6L82.9 46.5L82.9 46.7L82.9 46.9L82.8 46.9L82.8 46.9L82.7 46.9L82.7 46.9L82.7 47.0L82.6 46.9L82.6 46.8L82.5 46.6L82.4 46.5L82.4 46.3L82.4 46.5L82.3 46.5L82.3 46.3L82.2 46.3L82.2 46.2L82.1 46.3L82.1 46.4L82.0 46.3L82.0 46.3L82.0 46.3L81.8 46.0L81.8 45.7L81.6 45.5L81.5 45.4L81.6 45.3L81.5 44.8L81.4 44.5L81.3 44.2L81.3 44.0L81.1 43.4L80.9 43.1L80.8 42.8L80.7 42.7L80.6 42.5L80.5 42.6L80.4 42.3L80.3 42.1L80.3 41.8L80.2 41.6L80.1 41.4L80.0 41.0L79.9 40.6L79.8 40.3L79.7 40.0L79.6 39.8L79.5 39.4L79.4 39.0L79.1 38.4L79.1 38.2L79.1 37.7L78.9 37.2L78.9 37.0L78.6 36.4L78.2 36.0L78.0 35.6L77.8 35.3L77.6 34.8L77.5 34.4L77.3 34.0L76.9 33.4L76.7 33.1L76.7 32.9L76.8 32.9L76.8 32.6L76.8 32.3L76.8 32.2L76.5 31.7L76.5 31.4L76.3 31.1L76.0 30.7L75.8 30.1L75.6 29.6L75.7 29.6L75.4 29.2L75.3 28.9L75.3 28.8L75.2 28.6L74.9 28.2L74.8 28.0L75.0 28.2L74.7 27.9L74.8 27.9L75.0 28.2L75.2 28.3L75.2 28.2L75.5 28.6L75.7 28.9L75.8 29.0L75.8 28.9L75.9 29.0L75.9 28.9L75.8 28.6L75.7 28.5L75.6 28.3L75.5 28.1L75.6 28.3L75.5 28.1L75.3 27.8L75.1 27.6L75.0 27.5L74.7 27.1L74.6 27.0L74.4 26.8L74.1 26.5L73.9 26.2L73.7 26.1L71.1 23.7L71.2 23.7L71.1 23.6L71.2 23.7L70.8 23.4L70.8 23.5L70.2 23.0L69.8 22.7L69.5 22.4L69.0 22.1L68.5 21.7L68.1 21.4L67.6 21.1L67.3 20.9L65.7 20.0L65.7 20.0L65.7 20.0L65.9 20.1L66.2 20.3L66.2 20.3L66.0 20.2L65.5 19.9L65.6 20.0L65.0 19.7L64.9 19.7L65.3 19.8L65.5 20.0L65.7 20.1L66.1 20.3L66.4 20.5L66.6 20.6L66.5 20.5L66.2 20.3L66.3 20.4L66.8 20.7L67.3 21.0L67.4 21.1L67.2 20.9L67.4 21.1L67.3 21.0L66.9 20.8L66.9 20.8L67.2 21.1L67.1 21.0L67.4 21.3L67.8 21.4L68.1 21.6L68.2 21.7L68.4 21.8L68.5 21.9L68.9 22.1L69.2 22.3L69.5 22.5L69.6 22.6L69.6 22.6L69.5 22.5L69.7 22.6L70.0 22.8L70.2 23.0L70.6 23.3L70.5 23.2L70.4 23.2L70.6 23.3L70.7 23.4L71.1 23.8L71.1 23.8L71.2 23.9L71.4 24.0L71.3 24.0L71.4 24.1L71.6 24.2L71.6 24.2L71.8 24.3L71.8 24.3L71.8 24.3L71.9 24.3L72.1 24.5L72.1 24.5L72.3 24.7L72.5 24.9L72.7 25.1L72.7 25.2L72.5 25.0L72.4 24.9L72.3 24.9L72.3 24.9L72.2 24.9L72.3 24.9L72.2 24.9L72.1 24.9L72.0 24.8L71.7 24.6L71.7 24.5L71.6 24.5L71.7 24.6L71.6 24.6L71.6 24.6L71.7 24.8L71.6 24.8L71.7 25.0L71.5 25.0L71.5 24.9L71.5 25.0L71.3 24.9L71.3 25.0L71.5 25.2L71.5 25.2L71.3 25.1L71.3 25.0L71.3 25.2L71.6 25.5L71.8 25.6L71.9 25.6L72.1 25.7L72.1 25.5L72.3 25.6L72.4 25.5L72.3 25.4L72.3 25.4L72.4 25.5L72.4 25.4L72.3 25.2L72.3 25.1L72.4 25.1L72.5 25.3L72.5 25.3L72.6 25.4L72.9 25.7L72.9 25.7L73.0 25.8L73.2 25.9L73.6 26.3L73.7 26.4L73.6 26.3L73.3 26.1L73.2 26.0L73.1 26.0L73.0 25.9L73.0 26.0L72.9 26.0L73.0 26.1L72.9 26.1L73.0 26.3L73.0 26.4L72.9 26.4L72.7 26.4L72.5 26.3L72.5 26.4L72.4 26.5L72.5 26.6L72.8 26.9L72.9 27.1L73.2 27.4L73.3 27.8L73.6 28.3L73.8 28.5L74.0 28.7L74.3 29.1L74.5 29.5L74.7 29.7L74.9 30.0L75.2 30.3L75.4 30.4L75.6 30.7L75.8 30.9L76.0 31.2L76.3 31.7L76.4 32.1L76.4 32.4L76.5 32.6L76.6 32.8L76.7 33.0L76.5 32.9L76.4 32.9L76.3 33.1L76.4 33.3L76.3 33.4L76.4 33.6L76.1 33.2L75.9 33.1L75.9 33.2L75.7 33.1L75.5 32.9L75.3 32.6L75.2 32.4L75.0 32.2L74.9 32.1L74.7 32.0L74.6 31.9L74.3 31.6L74.1 31.6L73.8 31.0L73.9 30.7L73.8 30.4L73.9 30.2L73.9 30.0L73.8 29.5L73.5 29.2L72.7 28.6L72.3 28.6L72.1 28.6L72.1 28.9L71.7 28.7L71.6 28.3L71.6 28.0L71.2 27.8L71.3 27.7L70.8 26.9L70.4 26.6L70.2 26.4L70.2 26.2L70.0 26.0L69.2 25.5L68.9 25.1L68.8 25.0L68.7 24.9L68.7 24.8L68.7 24.7L68.5 24.5L68.3 24.5L68.0 24.4L67.9 24.4L67.4 24.2L67.3 24.2L67.1 24.1L67.0 23.9L66.8 23.8L66.6 23.6L66.9 23.7L67.0 23.8L67.2 23.8L67.1 23.7L67.3 23.8L67.4 23.9L67.7 24.1L67.9 24.1L68.1 24.2L68.0 24.0L68.2 24.1L68.0 23.9L67.9 23.7L67.9 23.6L67.9 23.5L67.7 23.3L67.4 23.0L67.0 22.7L66.9 22.5L67.0 22.5L66.8 22.3L66.6 22.3L66.3 22.0L65.9 21.9L65.6 21.8L65.3 21.7L65.0 21.5L65.2 21.5L65.1 21.3L64.7 21.2L64.4 21.2L64.5 21.2L64.5 21.3L64.3 21.3L64.0 21.1L63.7 20.9L63.6 20.7L63.4 20.6L63.0 20.4L62.9 20.5L63.3 20.8L63.7 21.0L64.0 21.3L64.0 21.4L63.9 21.5L63.5 21.4L63.1 21.5L62.8 21.3L62.5 21.2L61.7 20.9L61.5 20.8L61.3 20.8L61.2 21.0L61.6 21.2L62.1 21.3L62.3 21.3L62.9 21.6L63.5 21.9L64.2 22.1L64.5 22.1L64.5 21.9L65.2 22.2L65.5 22.4L66.2 22.6L66.7 22.8L66.9 23.1L67.2 23.2L67.4 23.5L67.0 23.4L66.6 23.4L66.0 23.4L65.8 23.4L66.6 23.9L66.8 24.2L66.6 24.4L66.1 24.3L65.0 24.0L64.6 23.8L64.0 23.3L63.3 22.8L62.6 22.5L61.4 22.1L60.9 21.9L60.0 21.5L59.6 21.3L59.4 21.1L59.0 21.0L58.8 20.8L58.5 20.7L58.4 20.3L58.7 20.4L58.9 20.3L58.5 20.2L58.6 20.0L58.3 19.8L58.1 19.3L58.1 19.2L58.4 19.1L58.7 19.2L59.1 19.4L59.6 19.9L59.7 19.9L59.8 19.7L60.3 19.6L60.1 19.5L60.1 19.4L59.9 19.4L59.9 19.5L59.6 19.4L59.4 19.2L59.1 19.1L59.0 19.2L58.3 19.0L58.1 19.0L58.0 18.8L57.8 18.8L57.7 19.0L57.4 19.0L57.3 19.1L57.0 18.9L57.0 18.8L57.3 18.8L57.5 18.8L57.4 18.7L57.1 18.6L56.8 18.6L56.3 18.5L55.5 18.4L55.3 18.4L55.6 18.3L55.4 18.3L55.2 18.3L54.9 18.2L54.5 18.1L54.4 18.0L54.0 18.1L54.2 18.2L54.0 18.2L53.5 18.0L53.3 18.0L52.6 17.7L52.5 17.7L52.6 17.8L52.6 17.9L52.8 17.9L52.7 18.0L52.7 18.1L52.7 18.2L52.2 18.3L52.0 18.5L51.9 18.5L51.4 18.4L51.4 18.3L51.7 18.1L51.6 18.1L51.6 17.9L51.7 17.7L51.5 17.6L51.7 17.5L52.2 17.3L52.0 17.2L51.9 17.3L51.6 17.3L51.5 17.4L51.3 17.4L51.4 17.6L51.2 17.7L51.5 17.7L51.5 17.8L51.3 18.0L51.5 18.1L51.1 18.3L51.1 18.4L51.0 18.4L50.9 18.3L51.0 18.1L50.8 18.0L50.9 18.2L50.6 18.2L50.2 18.3L49.9 18.1L50.1 18.3L50.1 18.6L49.8 18.6L49.4 18.6L49.1 18.6L49.2 18.8L49.1 18.9L48.9 18.9L48.7 19.1L48.3 19.2L48.3 19.2L48.0 19.3L47.8 19.2L47.6 19.4L47.4 19.5L47.4 19.6L47.4 19.7L47.2 19.9L46.9 19.8L47.0 19.7L46.7 19.8ZM61.2 17.9L61.2 17.9L61.4 18.0L61.9 18.2L62.0 18.3L62.0 18.3ZM50.6 28.4L50.6 28.4L50.4 28.4L50.3 28.3L50.6 28.3L50.6 28.3L50.6 28.4ZM48.6 28.3L48.4 28.3L48.2 28.2L48.4 28.0L48.6 28.1L48.7 28.2L48.6 28.3ZM55.7 21.5L56.1 21.6L56.1 21.7L56.0 21.7L55.8 21.8L55.7 21.7L55.7 21.6L55.7 21.5ZM48.8 27.9L48.6 28.0L48.5 28.0L48.5 27.9L48.6 27.8L48.7 27.8L48.8 27.9ZM50.4 28.2L50.2 28.3L50.1 28.2L50.1 28.1L50.0 27.9L50.2 27.9L50.2 27.9L50.4 28.1L50.4 28.2ZM49.9 28.1L49.9 28.3L49.7 28.3L49.5 28.1L49.3 28.0L49.4 27.9L49.3 27.8L49.3 27.7L49.5 27.7L49.8 27.9L49.9 28.1ZM47.3 20.1L47.8 19.8L47.9 20.2L47.8 20.2L47.7 20.2L47.3 20.2L47.3 20.1ZM55.3 22.1L55.4 21.8L55.8 21.9L56.1 21.9L56.3 22.0L56.7 21.9L56.8 22.0L56.7 22.2L56.4 22.2L56.4 22.3L56.0 22.4L55.6 22.5L55.3 22.4L55.5 22.3L55.4 22.2L55.2 22.3L55.1 22.2L55.3 22.1ZM54.5 21.8L54.6 21.6L54.9 21.6L55.1 21.8L55.2 22.0L55.1 22.0L55.2 22.1L55.0 22.2L54.6 22.0L54.8 21.9L54.5 21.9L54.5 21.8ZM52.7 20.7L52.8 20.8L53.0 20.7L53.0 20.8L53.1 20.7L53.2 20.8L53.1 20.9L53.1 21.0L53.0 20.9L52.9 20.9L52.9 20.8L52.8 20.8L52.7 20.9L52.6 20.8L52.7 20.7ZM47.9 20.0L48.1 20.0L48.5 20.0L48.7 20.1L48.9 20.2L49.0 20.3L48.9 20.5L48.7 20.6L48.5 20.5L48.1 20.3L47.9 20.0ZM51.2 27.4L51.4 27.5L51.3 27.7L51.2 28.0L51.0 28.1L50.7 28.1L50.6 27.9L50.5 27.7L50.6 27.6L50.4 27.6L50.3 27.5L50.2 27.2L50.3 27.1L50.3 27.0L50.4 27.0L50.4 26.9L50.6 26.8L50.7 27.0L50.9 27.1L51.1 27.2L51.2 27.4ZM52.0 25.7L52.2 25.7L52.4 25.7L52.6 25.7L52.6 25.8L52.6 26.0L52.5 26.1L52.5 26.2L52.7 26.2L52.7 26.5L52.6 26.6L52.7 27.0L52.6 27.1L52.6 27.2L52.3 27.3L52.5 27.4L52.4 27.5L52.6 27.6L52.6 27.8L52.5 28.0L52.5 28.2L52.4 28.3L52.4 28.4L52.7 28.3L52.7 28.4L52.5 28.8L52.1 28.8L51.7 28.9L51.5 28.8L51.3 28.9L51.2 28.7L51.4 28.6L51.3 28.2L51.4 28.2L51.7 28.3L51.5 28.1L51.3 28.0L51.3 27.8L51.5 27.7L51.5 27.5L51.2 27.3L51.2 27.2L51.4 27.1L51.5 27.2L51.6 27.0L51.4 26.9L51.1 27.1L50.9 26.9L50.8 26.7L50.7 26.7L50.6 26.5L50.7 26.4L50.8 26.4L50.9 26.3L51.0 26.2L51.1 26.2L51.2 26.2L51.2 26.1L51.2 25.9L51.3 25.8L51.5 25.8L51.6 25.9L51.7 25.7L51.8 25.7L52.0 25.7ZM53.6 24.3L54.0 24.1L54.3 24.2L54.2 24.4L54.1 24.7L54.3 24.7L54.3 24.5L54.6 24.4L54.4 24.3L54.6 24.3L54.9 24.4L54.8 24.2L54.6 23.9L54.7 23.8L55.0 23.8L55.3 24.1L55.5 24.2L55.5 24.4L55.6 24.3L56.0 24.4L56.3 24.6L56.9 24.8L57.3 24.8L57.4 24.9L57.4 25.1L57.8 25.1L58.3 25.2L58.3 25.3L58.8 25.3L58.7 25.5L59.0 25.5L59.2 25.6L59.2 25.8L59.2 25.9L59.6 25.9L59.8 26.0L59.5 26.2L59.6 26.3L59.9 26.2L60.3 26.2L60.6 26.3L60.7 26.6L60.4 26.6L60.1 26.6L60.5 26.7L60.6 26.9L60.9 26.7L60.9 26.5L61.2 27.0L61.5 27.6L61.4 28.0L61.3 28.2L61.4 28.4L61.8 29.0L61.9 29.4L61.9 29.6L61.9 29.8L61.8 30.1L62.0 30.4L62.2 30.7L62.4 31.0L62.6 31.5L63.0 31.8L63.3 32.2L63.6 32.6L63.3 32.8L62.8 32.7L62.5 33.0L62.1 32.9L61.5 32.6L60.8 32.3L60.4 32.0L60.1 31.7L59.5 31.5L59.2 31.1L59.1 31.1L58.7 30.5L58.8 30.2L58.7 29.9L58.5 29.7L58.4 29.9L58.4 30.0L58.4 30.2L58.0 30.1L57.7 29.9L57.6 29.7L57.7 29.5L58.1 29.5L57.6 29.4L57.4 29.3L57.3 29.5L57.1 29.5L56.9 29.0L56.6 28.8L56.3 28.7L55.8 28.3L55.5 28.3L55.3 28.1L54.9 28.1L54.6 28.1L54.3 28.2L54.1 28.4L53.8 28.3L53.4 28.1L53.6 27.9L53.9 27.8L53.3 27.8L52.9 27.7L52.9 27.7L53.1 27.3L53.3 27.0L53.2 26.8L52.9 26.8L52.9 26.6L52.9 26.2L53.0 26.2L52.8 26.0L52.9 25.9L53.0 25.7L53.2 25.6L53.3 25.6L53.3 25.4L53.5 25.4L53.7 25.4L53.9 25.4L53.6 25.3L53.4 25.2L53.2 24.9L53.3 24.8L53.2 24.6L53.3 24.5L53.6 24.3Z"/></g>
<g clip-path="url(#cb)" transform="rotate(-28 50 49)">
    <path d="M50,9 A 15 40 0 0 1 50,89 A 40 40 0 0 0 50,9 Z" fill="#05070e" opacity="0.46"/>
    <path d="M50,9 A 15 40 0 0 1 50,89" fill="none" stroke="#aeb9d0" stroke-width="7" opacity="0.14"/>
    <path d="M50,9 A 15 40 0 0 1 50,89" fill="none" stroke="#cdd6e8" stroke-width="2.4" opacity="0.55"/>
  </g>

</svg>