<svg xmlns="http://www.w3.org/2000/svg" viewBox="0 0 192 192">
<defs><linearGradient id="sp" x1="0" y1="0" x2="0" y2="1"><stop offset="0" stop-color="#c9b078"/><stop offset="1" stop-color="#a68a50"/></linearGradient>
<radialGradient id="oc" cx=".46" cy=".42" r=".62"><stop offset="0" stop-color="#3a2e12"/><stop offset=".55" stop-color="#251d0b"/><stop offset="1" stop-color="#161006"/></radialGradient>
<clipPath id="dk"><circle cx="96" cy="100" r="62"/></clipPath></defs>
<rect width="192" height="192" rx="28" fill="url(#sp)"/>
<circle cx="96" cy="100" r="62" fill="url(#oc)"/>
<g clip-path="url(#dk)">
<path fill-rule="evenodd" fill="#f2c95a" stroke="#7d6228" stroke-width="0.3" d="M41 122.5L41.3 123.9L41.8 125.2L41.4 124.9L41 124L40.9 123.4L40.6 123.2L40.1 122.4L39.8 121.3L39.6 120.6L39.3 119.5L39.1 118.2L39 117.1L39.1 115.6L39.2 116.5L39.4 117.9L39.7 119.3L40 119.7L40.4 119.9L40.9 120.8L41.1 121.5L41.1 121.9L41 122.5ZM46.2 130.4L46.5 131.2L46.2 131L45.4 129.9L45.3 129.4L44.7 128.8L44.6 128.2L45.4 129.2L45.8 130L46.2 130.4ZM150.4 119.5L149.8 120.9L149.6 120.9L149.5 120.7L149.5 120.6L149.8 120L150.2 119.2L150.3 119.2L150.4 119.5ZM126.7 55.5L126 54.9L125.6 54.6L124.9 54.3L124.4 54L124.6 53.5L125 53.6L125.2 53.3L125.5 53.6L126.2 53.7L126.3 53.9L126.8 54.2L127.1 54.8L127.1 55.1L127.3 55.7L127.2 55.9L126.7 55.5ZM102.6 46.3L102.4 46.1L101.7 46.2L101.4 46L101.5 45.8L101.8 45.7L102.5 45.4L103 45.3L102.7 45.1L103.4 45.2L104.2 45.1L104.5 44.9L105.2 44.6L106 44.5L106.5 44.5L107.3 44.7L107.9 44.9L109 45.2L109.1 45.4L108.5 45.6L107.2 45.7L106.6 45.7L105.9 45.7L105.1 45.8L104.5 45.9L104 46.1L103.6 46.2L103.4 46.4L102.8 46.5L102.6 46.3ZM100.9 48.1L100.3 47.6L100.2 47.9L99.8 47.7L99.7 47.4L99 47.2L98.4 47.2L97.8 47.3L97.4 47.2L97.6 46.9L97.9 46.6L98.6 46.7L98.9 46.6L98.8 46.4L98.9 46.3L99.3 46.1L99.8 45.9L100.5 45.8L100.7 45.9L101.1 46L100.5 46.3L100.8 46.5L101.8 46.8L101.7 46.9L101 47L100.8 47.3L100.9 47.6L101.2 47.9L101.2 48L101.6 48.2L102.3 48.6L102.6 49L102.3 48.9L101.8 48.7L101.1 48.5L100.9 48.1ZM106.3 54.8L106.7 54.8L107.1 55L107.6 55.3L108 55.7L108.5 56.1L108.5 56.2L108.2 56.1L107.8 55.9L107.5 55.7L107.3 55.5L106.7 55.1L106.3 54.8ZM97.3 55.7L97 55.5L97.1 55.3L97.6 55.3L98 55.3L98.1 55.5L97.8 55.7L97.5 55.6L97.3 55.7ZM96.5 55.9L97 55.8L97.1 55.9L96.7 56L96.5 56L96 56.2L96 56L96.5 55.9ZM105.3 57L105.5 57L105.7 57.2L105.7 57.3L105.3 57ZM105.7 57.7L105.6 57.4L105.8 57.5L106 57.5L106.1 57.6L106 57.9L105.7 57.7ZM128.8 127.5L129.3 127.7L129.5 127.7L129.7 127.9L129.7 128L129.3 128.1L129.3 128.3L129.6 128.4L129.7 128.5L129.7 128.8L129.9 129L130.1 129.6L130.2 130.2L130.5 131.1L130.7 131.7L130.8 132.3L130.4 132.9L130 133.5L129.6 133.8L129 134.2L128.7 134.2L128.4 133.9L128 133.9L127.7 133.7L127.6 133.4L127.9 133.1L127.8 133L127.8 132.5L127.7 132.3L127.4 132.3L127.1 132.2L126.8 132L126.9 131.6L126.7 131.3L127 131.1L127.2 130.7L127.4 130.4L127.6 130.2L127.7 129.7L128 129.1L128 128.8L127.8 128.7L128 128.5L128.1 128L127.9 127.9L127.9 127.6L128.2 127.5L128.5 127.4L128.8 127.5ZM121.5 65.5L121.4 65.1L121 64.9L120.9 64.6L120.7 64.3L120.8 64.2L120.9 63.8L120.9 63.6L120.8 63.4L120.8 63L121 62.9L120.9 62.5L120.3 61.8L120 61.4L119.6 61L119.7 60.9L119.5 60.5L119.4 59.9L119.1 59.8L118.9 59.5L118.7 59.5L118.8 59L118.4 58.5L118.2 58.2L117.7 57.6L117.7 57.2L117.8 57L117.9 56.8L117.7 56.3L117.9 56L118.2 55.9L118.5 55.6L118.6 55.4L118.9 55.2L119.4 55.1L120.1 55.2L120.5 55.1L120.9 55.1L121.3 54.9L121.7 54.9L122.1 54.7L122.3 54.5L122.3 54.4L122.9 54.5L123.8 55.1L124.6 55.4L125 55.5L125.6 55.6L126.1 56.2L126.5 56.6L126.3 56.7L126.8 56.9L127.6 57.1L128.2 57.7L128.5 58.1L128.9 58.4L129.6 59.1L129.9 59.7L129.8 60L129.8 60.3L130 60.7L130.7 61.3L130.3 61.3L130.3 61.7L130.8 61.8L131.4 62.2L130.9 62.1L130.7 62.2L130.3 62.1L130.1 62.4L130.9 62.6L131.4 62.9L131.9 62.9L132.2 63.5L132.1 63.6L132.3 64.2L132.5 64.7L132.3 64.6L132.9 65.6L133.3 66.1L133.7 66.8L134.8 68L135.6 68.8L136.3 69.5L136.8 70.2L137.5 70.8L138 71.4L138.3 71.4L138.6 71.6L139 72.2L139.4 72.7L139.7 73.4L140.1 73.9L140.4 74.5L140.9 74.8L141 75.1L141.3 75.4L141.6 75.7L141.9 76.3L142.2 76.8L142.4 77.8L142.5 78.3L142.3 78.4L142.1 78L141.9 77.9L141.8 78L141.5 78L141.3 78.2L141.1 78.8L141 79L140.7 79.1L140.6 79.5L140.5 79.6L140.5 80L140.3 80.2L140.2 80.8L140.1 81L140.1 80.6L139.8 81L139.8 80.6L139.8 80.3L139.6 80.4L139.5 80.9L139.4 81L139.4 81.2L139.1 81.2L139 81.1L138.7 81.1L138.6 81.3L138.1 81.1L138.4 80.9L138 80.7L137.6 80.2L137.3 79.9L136.9 79.4L136.7 79.1L136.6 78.9L136.2 78.4L135.9 78L135.8 78L135.7 77.8L135.4 77.4L134.9 76.7L134.5 76.5L134.2 76.4L133.8 76.1L133.7 76.2L133.5 76.3L132.9 76L133 75.6L132.7 75.3L132.7 75.7L132.4 75.6L132.3 75.3L132 75.4L131.6 75.1L131.4 75.1L131.1 74.8L131 74.9L130.8 74.6L130.7 74.6L130.5 74.4L130.2 74.1L130.1 73.6L130 73.1L129.7 72.7L129.4 72.3L129.3 72.6L128.9 72.5L128.6 72.3L128.6 72.5L128.2 72.4L127.8 72.2L127.6 71.9L127.1 71.4L126.9 71.6L127.2 72.1L126.9 71.8L126.6 71.4L126.5 71L126.1 70.5L126 70.4L125.7 70L125.3 69.7L125.2 69.5L125 69.5L124.9 69.1L125.2 69.1L125.5 69.1L125.7 69.3L125.7 69.1L126 69.1L126.4 69.2L126.4 69L126.1 68.5L125.8 68L125.6 67.6L125.4 67L125.2 66.9L125 66.5L125 66.4L124.5 65.8L124 65.6L123.7 65.6L123.5 65.7L123.3 65.8L122.9 65.9L122.9 66.1L122.7 66.2L122.7 66.4L122.4 66.6L122.2 66.6L122.2 66.8L122 66.8L121.7 66.9L121.6 67L121.3 67L121.3 66.7L121.4 66.5L121.3 66.3L121.4 66.2L121.3 65.8L121.4 65.6L121.5 65.5ZM108.8 60.5L108.6 60.3L109.1 60.4L109.3 60.8L108.9 60.5L108.8 60.5ZM131.6 78.8L131.8 79.1L132 80.1L131.6 79.5L131.5 79.1L131.5 78.9L131.6 78.8ZM109.5 61L109.8 61.1L110.2 61.3L110.3 61.4L110.2 61.5L109.8 61.3L109.6 61.1L109.5 61ZM108.9 60.9L109.1 60.9L109.5 61.4L109.5 61.7L109.3 61.6L109.1 61.2L108.9 60.9ZM130.1 76.6L130.6 77.1L130.6 77.2L130.4 77.2L130 77.1L129.5 76.6L129.4 76.6L128.9 76.1L128.6 75.7L128.5 75.6L128.3 75.3L128.6 75.5L129.2 76L129.6 76.4L130.1 76.6ZM131.8 81L131.8 80.7L131.6 80.4L131.6 80.1L132.1 80.8L132.4 81.2L132.6 81.6L132.2 81.5L132.1 81.1L131.8 81ZM130 78L130.3 77.9L131 78.8L131.4 79.6L131.3 79.7L130.9 79.3L130.8 78.8L130.5 78.4L130 78ZM110 61.8L110 61.7L110.4 62.1L110.8 62.4L110.9 62.6L110.8 62.6L110.6 62.4L110.1 62L110 61.8ZM111.4 62.8L111.5 62.8L111.8 63.1L112 63.3L111.9 63.4L111.6 63L111.4 62.8ZM133.9 87.2L133.5 86L133.3 85.9L133 84.6L133.1 84.3L132.8 83.3L132.6 82.4L133.1 83L133.3 83.8L133.6 84.4L133.8 85.1L134 85.7L134.1 86.6L134.2 87.1L134.4 87.3L134.6 88.6L134.5 88.8L134.6 89.4L134.1 89L133.9 88.2L133.9 87.6L133.8 87.4L133.9 87.2ZM124.3 72L124.7 72.1L124.5 72.3L124.3 72.4L124.1 72.3L124.1 72.2L124.3 72ZM112.4 63.5L112.5 63.5L112.8 63.8L112.9 64.2L112.9 64.5L112.8 64.5L112.8 64.4L112.7 64.2L112.5 63.8L112.2 63.5L112.4 63.5ZM114.5 65.2L114.9 65.3L115 65.3L115.4 65.3L115.8 65.4L116.1 65.6L116.5 66L116.8 66.3L116.7 66.4L116.2 66L115.8 65.9L115.6 66L115.6 65.9L115.6 65.7L115.2 65.6L115 65.6L114.6 65.5L114.5 65.8L114.2 65.6L114.1 65.5L114.2 65.3L114.5 65.2ZM126.7 76.6L127 76.7L127.2 77.2L127.2 77.4L126.7 76.8L126.7 76.6ZM125.3 75L125.4 74.6L125.6 75.2L125.9 75.6L126.2 75.9L126.5 76.3L126.2 76.3L125.7 75.7L125.3 75ZM113.6 65.2L113.9 65.2L113.9 65.4L114 65.6L114.2 65.9L114.4 66.2L114.8 66.6L114.6 66.6L114.3 66.3L114.2 66.1L114 65.9L113.8 65.6L113.6 65.4L113.6 65.2ZM123 73.8L123.4 73.2L123.1 72.5L122.4 72.4L121.6 72.1L121.2 71.7L120.9 71.2L120.6 70.8L120.1 70.3L119.3 69.3L118.5 68.4L118.2 67.9L118 67.6L118.1 67.3L117.3 66.5L117.2 66.2L117.8 66.5L117.8 66.2L117.4 65.6L117.3 65L116.9 64.8L117 64.6L116.6 64.3L116.8 64.3L116.2 63.8L116.4 63.7L116.8 64L116.9 64.1L117.4 64.5L118 64.9L118.3 65.5L118.5 65.9L118.6 66.4L119.3 67L119.8 67.3L120.3 67.4L120.4 67.1L120.9 67.4L121.2 67.7L121.8 68.1L122 68.8L122.5 69.3L122.7 69.4L123.4 70L123 70L122.6 69.8L122.4 70.3L122.4 70.7L123.2 71.9L123.5 72.3L124 73.3L124.3 73.3L124.5 73.5L124.5 73.7L124.3 73.8L124.5 74.3L123.9 73.9L123.6 73.6L123.6 73.7L124.2 74.4L124.2 74.7L124.5 75.2L124.6 75.6L123.9 75L123.6 74.8L123 73.9L123 73.8ZM125.9 78.9L126.5 79.1L126.9 79.4L127.1 80L127.7 80.9L128.1 81.3L128.4 81.3L128.4 80.6L128.1 80.4L127.3 79.4L127.5 79.4L127.6 79.6L127.9 79.7L128.4 80.1L128.5 79.3L128.7 79.4L128.8 78.6L129 78.4L129.3 78.7L129.3 79L128.8 78.9L129.3 79.4L129.3 79.6L129.2 79.6L129.2 80.1L128.8 80.3L129.2 80.6L129.5 80.3L130 80L130.3 80.3L130.4 80.7L129.9 80.7L129.6 81L129.8 81.2L129.6 81.5L129.3 81.4L128.9 81.5L128.2 81.5L128 81.5L127.5 81.2L127.3 80.7L126.9 80L126.5 79.4L125.9 79L125.9 78.9ZM124.7 77L125 76.8L125.2 77.1L125.4 77L125.4 76.7L125.6 76.8L125.5 77.2L125.2 77.7L124.9 77.8L124.6 77.7L124.8 77.5L124.6 77.2L124.7 77ZM134.1 89.2L134.3 89.9L134.1 90.6L134 91.5L133.8 91.9L133.6 92.4L133.4 92.8L132.9 93.4L132.6 94L132.3 94.3L132 94.5L131.9 95.2L131.6 95.5L131.4 96L131 96.7L130.8 96.8L130.8 96.4L130.7 95.4L131.1 94.8L131.3 94.3L131.4 94L131.7 93.3L131.6 92.7L131.8 92.1L132 91.6L132.1 91.1L132.5 91.3L132.5 90.9L132.5 90.7L132.7 90.5L132.9 90.2L132.8 89.7L133 89.3L133.5 89.3L134.1 89.2ZM128.2 83L128.2 82.1L128.6 82.8L129 82.9L129.3 82.7L129.8 83.1L130.2 82.9L130.9 82.9L130.8 83L131.3 83.6L131.2 84L131.3 84.4L131.4 84.8L131.8 85.5L131.7 85.8L131.9 86.2L132 86.7L131.6 87L131.6 87.4L131.3 87.8L131 88L130.6 88L130.2 87.8L130.2 87.3L130 86.8L129.6 86.9L129.4 86.6L129.1 86L128.6 85.7L128.2 85.5L128 85.4L127.6 85L127.1 84.7L126.7 84.6L126.6 84.3L126.6 84L126.7 83.9L126.7 83.5L126.5 83L126.7 82.9L126.9 83.3L127 83.1L127.4 83.4L127.9 83.5L128 83L128.2 83ZM123.2 80L123.3 79.8L123.5 79.6L123.9 79.6L123.7 80L124 80.1L124.2 79.8L124.4 79.8L124.7 80.5L124.5 80.8L124.2 80.8L124.3 81.2L124.5 81.3L124.7 81.5L125.1 81.8L125.1 81.9L124.6 81.9L124.3 81.6L124 81.5L124.1 81.2L123.7 80.9L123.5 80.9L123.3 80.6L123 80.8L122.9 80.3L123.1 80.1L123.2 80ZM130.2 105.3L130.2 105.8L129.9 106L129.3 106L128.7 105.7L128.9 105.3L129.3 105.1L129.7 104.9L130.2 105L130.2 105.3ZM67.1 116L66.9 115.6L66.9 115.5L67 115.6L67.2 115.5L67.4 115.8L67.4 115.9L67.1 116ZM123.3 81.6L123.6 81.7L123.9 81.7L124.1 81.8L124 82.2L123.9 82.2L123.7 82.1L123.4 82.2L123.2 82L123.5 81.9L123 81.8L123.3 81.6ZM125.3 84.1L126 84.6L125.6 84.5L125.2 84.2L124.8 84.1L124.3 84L124.5 83.7L124.9 84L125.3 84.1ZM123.4 82.9L123.3 82.6L123.1 82.3L123.3 82.2L123.6 82.3L123.9 82.6L123.7 82.7L123.5 82.8L123.4 82.9ZM122.2 81.3L122.5 80.9L122.6 81.3L122.7 81.2L122.9 81L123.1 81.2L122.9 81.3L123 81.5L122.8 81.7L122.6 81.4L122.5 81.5L122.5 82L122.2 81.5L122.2 81.3ZM123.1 83.4L123.5 83.3L123.4 83.6L123.3 84L123.1 83.6L123.1 83.4ZM121.2 84.6L121.2 84.3L121 84.2L121.1 84.1L121.3 84.1L121.4 83.8L121.8 83.7L122.1 83.9L122.4 83.8L122.6 83.6L122.5 83.3L122.3 83.1L122.1 82.4L122.3 82.3L122.3 82.1L122.5 82.1L122.6 82.5L122.5 82.8L122.7 82.9L122.7 83.3L123 83.7L123.1 84L122.9 84L122.7 83.9L122.7 84.1L122.9 84.1L122.8 84.5L122.7 84.6L122.4 84.8L122.4 84.6L121.8 84.9L121.4 84.9L121.2 84.6ZM69 112.3L68.8 112.2L68.7 111.8L68.5 111.5L68.7 111.5L68.8 111.5L68.9 111.9L69 112.1L69 112.3ZM67 106.8L66.9 106.6L66.9 106.3L66.9 106L67.1 106L67.1 106.2L67.1 106.4L67.2 106.7L67.1 107L67.1 107.1L67 106.8ZM68.3 108.7L68.4 109.1L68.5 109.2L68.6 109.5L68.6 109.8L68.7 110L68.6 110.1L68.7 110.4L68.6 110.4L68.6 110.6L68.6 110.9L68.4 110.8L68.3 110.5L68.2 110.3L68.2 110.1L68.1 110.1L68 109.9L68.1 109.8L68 109.7L67.6 109.5L67.7 109.4L67.8 109.3L67.7 109L67.6 108.8L67.6 108.4L67.4 108.2L67.5 107.9L67.6 107.9L67.7 108.4L67.8 108.8L67.9 108.9L68 108.7L68.2 108.6L68.1 108.3L68.3 108.4L68.3 108.7ZM123.6 89.8L124 90.1L124 90.5L123.7 90.7L123.4 90.5L123.1 90L123 89.7L123.1 89.6L123.4 89.7L123.6 89.8ZM83.9 73.3L83.9 73.2L84 73.2L84.1 73.3L84.2 73.4L84.2 73.5L84.2 73.6L84.2 73.7L84 73.7L83.9 73.7L83.8 73.7L83.6 73.6L83.7 73.4L83.9 73.3ZM84.4 73.8L84.5 73.7L84.6 73.7L84.7 73.8L84.5 73.9L84.4 73.9L84.4 73.8ZM84.8 73.9L84.8 73.8L85 73.7L85 73.8L84.8 73.9ZM85.2 73.7L85.3 73.7L85.4 73.7L85.5 73.7L85.4 73.8L85.2 73.7ZM86.1 73.7L86.1 73.6L86.3 73.6L86.3 73.7L86.2 73.7L86.1 73.8L86.1 73.7ZM68.7 105L68.5 105.2L68.7 105.6L68.6 105.8L68.5 106.3L68.3 106.6L68.4 106.8L68.4 107.1L68.3 107.1L68.3 107.4L68.3 107.9L68.2 107.8L68 107.5L67.9 107.2L67.9 106.8L67.7 106.1L68 106.4L68 106.2L68 105.9L68.1 105.7L68.3 105.5L68.2 105.3L68.2 104.8L68.3 104.6L68.3 104L68.3 103.8L68.4 104L68.4 103.5L68.1 103.2L68.1 103L68 102.9L67.9 102.7L68 102.5L68.1 102.7L68.3 102.8L68.4 103L68.5 103.2L68.6 103.6L68.6 103.7L68.7 104.1L68.7 104.5L68.7 105ZM69.3 105.9L69.2 105.8L69.4 105.6L69.5 105.4L69.8 105.5L69.8 105.6L69.5 105.9L69.3 105.9ZM119.8 85.6L120.2 85.6L120 86L119.8 86.2L119.3 86.2L118.8 86L118.8 85.8L119.1 85.7L119.8 85.6ZM70.4 105.5L70.2 105.1L70.4 105L70.4 105.2L70.5 105.5L70.4 105.5ZM70.5 105.9L70.2 105.9L70.2 105.8L70.4 105.7L70.5 105.5L70.6 105.5L70.5 105.9ZM112.4 83.8L112.5 83.6L112.8 83.6L112.9 83.8L113.1 83.9L113.3 83.8L113.4 84.1L113.3 84.3L112.9 84.3L112.8 84.1L112.6 84.1L112.4 83.8ZM108.7 118.5L108.6 118.8L108.7 118.8L108.7 118.9L108.5 119.2L108.3 119.3L108.1 119.2L108.3 119.1L108.3 118.9L108.5 118.8L108.7 118.5ZM105 120.5L105.3 120.6L105.5 120.4L105.8 120.3L105.8 120.4L106 120.3L106 120.4L105.5 120.7L105.5 120.6L105 120.7L105 120.5ZM101.7 120.6L101.7 121L101.8 121.1L101.7 121.3L101.4 121.2L101.2 121.2L100.7 121.1L100.7 120.9L101.1 120.9L101.5 120.7L101.7 120.6ZM99.2 119.9L99.5 120.2L99.5 120.7L99.4 120.7L99.2 120.9L99.1 120.8L99 120.3L98.9 120.1L99.1 120.1L99.2 119.9ZM109.8 83L110.1 82.9L110.2 82.7L110.5 82.6L111 82.7L111.6 83.2L112.3 83.2L112.4 83.6L112.2 83.8L112.7 84.2L113.2 84.4L113.5 84.8L113.5 84.3L114.2 84L114.5 84.1L114.5 84.4L114.1 84.5L114.2 84.8L114.1 85.1L113.8 84.9L113.4 84.9L113 84.8L112.6 84.7L112 84.2L111.7 83.9L110.9 84.1L110.9 83.8L110.2 83.8L109.9 83.7L109.4 84L109.2 84.4L108.9 84.5L108.5 84.3L108.8 83.7L109 83.5L109.5 83.4L109.8 83ZM99.3 119.5L99.2 119.8L99.1 119.8L98.9 119.5L99 119.4L99.2 119.2L99.3 119.5ZM107.2 84.7L107 84.5L106.7 84.5L106.9 84.1L107.4 84.3L107.9 84.1L108.1 84.7L108.6 84.4L108.9 84.7L108.7 85L108.3 85.2L108 84.9L107.6 85.3L107.3 85.5L107.3 85L107.2 84.7ZM79.9 108L80 108.2L80.1 108.4L79.9 108.4L79.8 108.3L79.8 107.9L79.9 107.7L80 107.8L79.9 108ZM81.1 108L81 107.9L81 107.5L81 107.1L81.1 107.2L81.2 107.6L81.2 107.9L81.1 108ZM81.7 90.5L81.7 90.4L82.2 90.1L82.3 90.1L82.6 90L82.7 90L83 89.8L83.2 89.9L83.3 89.9L83 90.1L82.9 90.2L82.7 90.4L82.5 90.4L82.3 90.4L82 90.6L81.7 90.5ZM82.5 109.1L82.1 109.1L82.3 109.2L82.4 109.4L82.2 109.4L82.2 109.7L82.4 109.7L82.5 110L82.2 110.1L82.3 110.3L82.2 110.4L82 110.6L81.7 110.8L81.6 110.7L81.5 110.4L81.8 110.3L81.8 110.2L81.3 110.1L81.2 110L81.5 110L81.4 109.7L81.2 109.5L80.9 109L81 108.9L81.2 108.9L81.3 108.8L81.6 108.9L82.3 108.8L82.6 108.8L82.9 108.9L82.9 109L82.8 109L82.5 109.1ZM85.1 89.9L84.9 90.1L84.6 89.8L84.2 89.7L84.3 89.6L84.6 89.6L84.8 89.7L84.9 89.7L85.1 89.8L85.2 89.9L85.1 89.9ZM105.6 86.9L105.8 86.2L106.1 86.5L106.6 86.2L106.6 85.7L106.8 85.4L106.8 85.8L107.2 85.6L107 85.9L106.7 86.2L106.5 86.6L106.2 86.8L105.9 87.3L105.8 87.7L105.4 88.1L105.1 88.1L105.1 88.3L104.9 88.3L105 88L105.2 87.7L105.5 87.3L105.6 86.9ZM94.2 115.5L93.6 115.7L93.3 115.5L93.6 115.2L93.5 114.7L93.9 114.5L94.1 114.3L94.3 114.3L94.6 114.6L94.4 114.8L94.4 115.1L94.2 115.5ZM99.1 113.9L99 114.2L98.7 114.1L98.7 113.9L99 113.7L99.1 113.9ZM89.8 87.9L90 87.6L90.1 87.7L90.2 87.8L90.1 88.1L90 88.2L89.9 88.2L89.7 88.2L89.8 87.9ZM95.3 112.9L95 113.4L95.3 113.3L95.5 113.3L95.5 113.7L95.2 114L95.5 114.1L95.7 114.6L95.9 114.7L96 115.2L96.1 115.3L96.5 115.4L96.4 115.7L96.3 115.8L96.4 116L96.2 116.2L95.8 116.2L95.3 116.3L95.2 116.2L95 116.4L94.7 116.3L94.5 116.5L94.3 116.4L94.8 116L95.1 115.9L94.6 115.8L94.6 115.6L94.9 115.5L94.7 115.3L94.8 115L95.2 115.1L95.2 114.9L95.1 114.6L94.8 114.5L94.7 114.4L94.8 114.2L94.8 114.1L94.6 114.3L94.6 113.9L94.5 113.6L94.7 113.2L94.9 112.9L95 113L95.3 112.9ZM92.9 88L93 87.9L93.2 87.9L93.3 88L93.1 88.1L93 88.1L92.9 88ZM84.7 102.1L84.5 102.1L84.5 102L84.6 101.9L84.8 102L84.8 102.1L84.7 102.1ZM84.8 101.6L84.6 101.4L84.6 101.2L84.7 101.2L84.9 101.3L84.9 101.6L84.8 101.6ZM94.4 89.3L94.3 89.2L94.2 89.3L94 89.2L93.8 89.2L93.8 89.1L94 89L94.1 89.1L94.2 89.1L94.4 89.1L94.4 89.3ZM86 100.8L85.8 100.9L85.9 101L85.8 101.1L85.7 101.3L85.6 101.5L85.4 101.6L85.4 101.7L85.3 101.9L85.1 101.7L85.2 101.4L85.4 101.3L85.1 101.1L84.9 100.9L85.1 100.8L85.1 100.5L85.3 100.7L85.6 100.7L86 100.7L86 100.8ZM93.6 109.4L93.5 109.7L93.6 110L93.3 110.2L92.7 110.4L92.5 110.4L92.3 110.2L91.8 109.9L92.1 109.8L91.8 109.5L92.1 109.5L92.2 109.4L91.8 109.2L92.1 109L92.3 109L92.5 109.4L92.8 109.3L93 109.4L93.3 109.3L93.6 109.4ZM86.8 102.3L86.8 102.1L87 102L87.2 102.1L87.3 102.2L87.2 102.3L87 102.4L86.8 102.3ZM95.2 90.4L95 90.3L95.1 90.6L94.6 90.6L94.3 90.2L94.4 90L94.7 89.9L94.6 89.5L94.7 89.4L94.9 89.4L95 89.6L95.3 89.7L95.3 89.8L95.5 89.9L95.7 89.8L95.8 90L95.8 90.1L96 90L95.9 89.8L96 89.7L96 91.3L95.6 91L95.2 90.6L95.2 90.4ZM87.4 99.2L87.3 99L87.4 98.9L87.4 98.7L87.6 98.6L87.7 98.7L87.9 98.8L87.7 99L87.6 99.1L87.4 99.2ZM96 92.1L96.2 92.1L96.2 92.2L96 92.4L96 92.1ZM95.8 92.1L96 92.1L96 92.4L95.9 92.4L95.7 92.3L95.7 92.2L95.8 92.1ZM87.5 99.9L87.1 99.9L87.4 100.1L87.2 100.3L86.9 100.3L86.6 100.4L86.9 100.6L87.3 100.7L87.7 100.6L87.7 100.9L87.7 101.1L87.5 101.3L87.3 101.3L87.1 101.3L86.8 101.4L86.6 101.4L86.3 101.1L86.2 100.9L86.3 100.7L86.1 100.7L85.8 100.5L85.6 100.5L85.3 100.3L85.3 100L85.1 99.9L84.8 99.8L84.8 99.6L84.5 99.4L84 99.1L83.7 99L83.2 99L83.1 99.3L82.7 99.4L82.4 99.5L82.5 99.8L82.3 100.2L82.1 100.5L82 100.7L81.9 101L81.7 101.2L81.7 101.7L81.7 101.9L81.4 101.9L81 102.1L80.5 102.3L80.2 102.8L80.4 103L80.8 103.1L81.4 102.8L81.6 102.6L81.9 102.9L82.2 103.2L82.5 103.2L82.8 103.1L83.1 102.9L83.4 102.6L83.8 102.7L84.2 102.6L84.8 102.4L84.9 102.5L84.9 102.8L84.9 103L85.1 103.2L85 103.4L84.8 103.7L84.7 103.8L84.8 104.2L84.5 104.3L84 104.5L84 104.8L83.8 105L84.2 105.2L84.7 105.2L84.9 105.3L84.7 105.6L84.3 106.1L84 106.5L83.7 106.6L83.7 107L83.6 107.3L83.7 107.7L83.7 107.9L83.5 108.2L83.5 108.4L83.5 108.5L83.1 108.8L82.8 108.7L82.6 108.7L82.2 108.3L81.8 108.2L81.5 107.8L81.3 107.2L81.1 106.8L80.9 106.6L80.6 106.5L80.3 106.2L79.6 106L79.1 105.8L79.3 106L79.9 106.3L80.5 106.7L80.7 107.1L80.7 107.4L80.3 107.3L79.9 107.6L79.7 107.8L79.7 108.3L80 108.7L80.5 108.7L80.3 108.9L80.3 109.2L79.8 109L79.3 108.4L79 108.2L78.5 108L78.5 107.8L78.8 107.6L79.3 108L79.1 107.5L78.9 107.2L78.8 107.3L78.5 107.1L78.2 106.8L78 106.5L77.7 106.4L77.6 106.4L77.4 106.5L77.2 106.7L77.3 106.8L77.4 106.7L77.3 106.8L77.2 106.8L77.1 106.6L77 106.5L76.9 106.3L76.8 106.1L76.7 105.9L76.5 105.7L76.8 106.2L76.7 106.3L76.4 105.8L76.4 105.6L76.3 105.6L76.3 105.7L76 105.7L75.6 105.5L75.7 105.4L75.8 105.2L75.6 105.3L75.5 105.4L75.4 105.5L75.2 105.4L74.8 105.3L75.1 105.3L75.3 105.1L75.6 105L75.4 104.9L75.1 105.1L75.2 104.8L75.1 105.1L74.7 105.2L74.7 105.3L74.6 105.4L74.2 105.5L73.8 105.4L73.6 105L73.3 104.8L73.3 104.6L73.1 104.4L72.9 104.4L72.6 104L72.3 103.8L72.1 103.6L71.8 103.6L71.5 103.7L71.2 103.9L70.9 104.2L70.7 104.2L70.3 104.5L70 104.5L69.9 104.5L69.6 104.5L69.5 104.3L69.5 104.1L69.7 104L69.8 103.8L70.1 103.5L70.4 103.3L70.5 103.2L70.8 103.2L71 103.1L71.3 102.7L71.4 102.5L71.1 102.1L71.2 102L71.3 101.8L71.4 101.5L71.3 101.1L71.4 100.7L71.3 100.4L71.3 100.2L71.2 100.3L71 100.2L70.9 100.3L70.9 100.1L70.8 99.9L70.9 99.6L71.1 99.3L71 98.9L71.2 98.6L71.1 98.3L71.1 98L70.8 97.5L70.7 97.1L70.5 96.8L70.3 96.7L70 96.6L69.8 96.6L69.7 96.7L69.4 96.5L69.1 96.4L68.5 96.2L68.3 96.2L68.1 96.2L67.9 96.4L67.6 96.4L67.2 96.7L67 96.8L66.7 97L66.6 97.5L66.4 97.7L66.5 98.2L66.5 98.6L66.5 99L66.6 99.3L66.8 99.6L67 99.7L67.4 99.8L67.5 99.9L67.6 100.2L67.7 100.7L67.7 101.2L67.7 101.5L67.7 101.6L67.5 101.6L67.2 101.3L66.9 101.2L66.9 101.3L66.7 101.2L66.4 101.1L66.5 101L66.5 100.9L66.4 100.9L66.4 101L66.3 101L66.1 100.9L66 100.9L65.9 100.9L65.6 100.9L65.5 100.8L65.5 100.7L65.4 100.6L65.3 100.7L65.4 100.8L65.3 101L65.4 101.1L65.4 101.3L65.4 101.4L65.4 101.7L65.4 101.9L65.4 102.1L65.5 102.1L65.5 102.3L65.5 102.4L65.5 102.6L65.5 102.7L65.5 102.9L65.5 103L65.4 103.2L65.4 103.3L65.3 103.5L65.2 103.7L65.1 103.6L64.9 103.7L64.8 103.6L64.6 103.6L64.4 103.6L64.3 103.6L64.1 103.6L63.9 103.5L63.8 103.6L63.7 103.5L63.6 103.5L63.5 103.6L63.3 103.8L63.2 104L63 104.3L62.9 104.5L62.8 104.5L62.8 104.8L62.9 104.8L62.8 105L62.9 105.3L63 105.5L63.2 105.8L63.3 106L63.4 106.3L63.3 106.3L63.4 106.6L63.3 106.9L63.3 107.1L63.2 107.4L63.3 107.7L63.6 108L63.7 108.2L63.9 108.2L64.2 108.2L64.5 108.5L64.6 108.8L64.7 108.9L64.8 109.3L65.1 109.7L65.3 109.8L65.6 110L65.6 110.2L65.5 110.4L65.4 110.3L65.3 110.4L65.1 110.1L65 110.3L64.8 110.4L64.5 110.2L64.2 110.5L64.3 110.7L64.7 110.8L64.8 110.5L65 110.4L65.4 111L65.6 110.9L65.8 111L65.6 111.3L65.7 111.7L65.6 112.1L65.5 112.2L65.7 112.7L66 113.2L65.9 113.6L66.1 114L66.3 114.3L66.4 114.2L66.8 114.8L67.1 115.4L66.8 115.1L66.7 115.3L66.9 115.8L66.9 116.2L66.7 116.5L66.8 116.7L66.9 117L66.9 117.4L66.9 117.9L66.7 118L66.8 118.2L66.8 118.6L66.8 118.8L67.2 119.5L67.3 119.5L67.6 119.9L67.8 120.5L67.9 120.7L68.1 121.1L68.2 121.8L68.2 122L68.3 122.2L68.2 122.4L67.9 123.2L68.1 123.5L67.9 123.7L67.3 123.5L67.3 123.7L68 124.7L67.7 124.9L68.3 125.1L68.7 125.8L69.3 126.8L69.3 127.2L69.1 127.3L69.8 127.7L70.6 128.8L71.3 129.4L71.9 130.3L72.3 131.2L72.6 131.6L73.1 132L73.2 132.2L73.1 132.8L73.1 133.1L72.5 133.5L72 133.5L70.8 133.3L70.2 133.4L69.5 133.4L69.4 133.3L69 133.4L68.6 134L68 134.4L67.8 134.5L67.5 134.5L67 134.8L66.1 134.7L65.7 134.9L65.1 134.6L64.8 134.7L64.1 134.1L63.1 133.3L62.5 133.1L61.8 132.5L60.9 132L60.1 131.7L59.8 131.9L59.7 132.1L59.3 132.3L59 132.3L58.5 131.9L57.3 131.7L56.6 131.3L56 130.9L55.5 130.8L54.9 130.5L54.5 130.4L53.7 129.7L53.4 129.1L53.1 128.7L52.8 127.9L52.5 127.4L52.4 126.8L52.1 126.9L52.5 128L52.2 128.1L52.3 128.7L52.1 128.7L51.2 128.3L50.3 127.2L49.3 125.6L48.8 124.7L48.7 125L48.3 125L48.2 125.2L47.9 124.8L47.4 124L47.1 123.1L46.9 122.8L46.5 123.1L46.7 123.7L47 124.1L47 124.5L46.5 123.7L45.9 123.2L45.5 123.2L45.2 123.1L44.8 122.2L44.3 121.6L43.9 121.5L44 122.5L44.3 123.4L43.8 123.2L43.2 122.2L42.5 121.8L42 121L41.6 120.7L41.4 121.2L41.4 121.9L41.2 121.5L40.9 120.6L40.7 120.2L40.2 119.4L39.8 119.3L39.6 118.9L39.4 117.8L39.3 116.6L39.2 115.3L39.4 114.9L39.7 115.1L39.8 114.5L40.5 114.2L41 114.6L41.6 115.5L41.3 114L41.9 114.8L42.6 115L42.8 116L43.8 116.3L43.7 115.6L43.1 115.5L43 114.9L43.6 115L44.5 115.1L44.8 115.4L45.2 115.1L45.6 114.8L45.7 115.2L46.5 115.6L47.3 115.9L48 116.1L48.6 115.7L49 115.9L49.4 115.6L50.1 115.9L50.9 115.8L51.8 115.8L52.7 115.7L53.3 115.4L53.8 115L53.8 114.2L53.9 114.1L53.9 112.5L53.9 111.1L54 110.5L54.3 110.1L54.4 110.2L54.8 109.4L55.4 108.6L56.1 107.7L56.2 107.4L56.5 107.1L56.6 106.6L56.7 106L56.9 106.2L57.3 105.8L57.6 106L57.9 106.5L58.3 106.8L58.5 106.6L58.2 106.4L58.3 106L58.5 106.1L58.8 105.9L58.9 106.1L59.2 106.2L59.5 106.4L59.7 106.3L59.8 106.7L60.1 107.1L60.2 107L60.2 107.2L60.4 107.1L60.6 107.2L60.7 107.5L61 107.7L61.3 107.9L61.3 107.7L61.6 107.7L61.9 107.5L62.1 107.6L62.4 107.5L62.5 107.2L62.6 107L62.8 106.8L63 106.9L63 106.8L63.1 106.6L63.1 106.3L63 106.1L62.9 106L62.7 105.8L62.7 105.6L62.6 105.6L62.4 105.9L62.4 105.8L62.3 105.7L62.2 105.4L62.4 105.3L62.4 105.2L62.4 105L62.5 104.9L62.5 104.6L62.5 104.5L62.5 104.2L62.4 104.2L62.5 104.1L62.5 103.8L62.6 103.7L62.7 103.7L62.8 103.5L62.9 103.3L62.9 103.1L63 103.1L63.1 102.9L63 102.9L62.9 102.8L63 102.7L63 102.5L63.1 102.4L63.2 102.4L63.3 102.5L63.4 102.3L63.5 102.4L63.6 102.2L63.7 102L63.9 101.8L64 101.6L64.2 101.3L64.2 101.4L64.2 101.5L64.3 101.4L64.4 101.2L64.3 101.2L64.3 100.8L64.3 100.6L64.4 100.4L64.4 100.1L64.5 99.9L64.6 99.7L64.6 99.3L64.7 99.1L64.8 98.8L65.3 98.2L65.5 97.9L65.6 97.5L65.6 97.2L65.5 96.8L65.5 96.5L65.6 96.1L65.8 95.7L66 95.3L66.1 94.9L66.4 94.3L66.7 94L66.8 93.8L66.9 93.6L67.2 93.1L67.4 92.9L67.8 92.4L68.1 92.3L68.3 92.2L68.3 92.4L68.4 92.4L68.5 92.5L68.7 92.5L68.9 92.4L69 92.4L69.3 92.3L69.8 92L70.3 91.7L70.6 91.5L70.9 91.2L71 91.2L71.2 91.3L71.4 91.1L71.7 91L72 90.9L72.1 90.7L72.4 90.6L72.6 90.5L72.8 90.5L73.1 90.4L73.5 90.4L73.6 90.4L73.9 90.2L74 90.1L74.2 89.9L74 89.8L73.8 89.8L73.5 89.7L73.3 89.7L72.9 89.9L72.8 89.9L72.7 90L72.6 90L72.6 90.1L72.3 90L72.1 90.1L72 90.2L71.7 90.4L71.2 90.4L71 90.4L70.8 90.5L70.6 90.4L70.5 90.6L70.3 90.7L70 90.8L69.9 90.6L69.9 90.5L70.2 90.5L70.5 90.2L70.8 90L71 89.8L71.3 89.9L71.5 90L71.7 89.8L72 89.6L72 89.5L72.1 89.5L72.4 89.2L72.7 89.1L72.6 89.3L72.7 89.5L72.8 89.6L73.2 89.4L73.5 89.2L73.8 89.2L74.1 89.2L74.5 89.2L74.9 89.2L75.1 89.2L75.4 89.1L75.5 88.9L75.7 89L75.8 88.8L76 88.7L76.2 88.4L76.3 88.3L76.5 88.4L77.1 88.3L77.7 88.3L77.8 88.4L78 88.3L78.5 88.3L78.8 88.4L79.1 88.4L79.3 88.7L79.6 88.8L79.9 88.9L80.2 89.3L80.7 89.7L81.2 90L81.6 90.1L81.8 90.2L81.5 90.5L81.1 90.4L81.1 90.6L81.4 90.7L81.8 90.8L82.4 90.5L82.7 90.5L83.1 90.2L83.5 90.3L83.7 90.4L84.1 90.3L84.3 90.5L84.8 90.4L84.9 90.5L85.2 90.5L85.4 90.5L85.7 90.7L86.2 90.7L86.5 90.8L86.7 90.7L87 90.4L87.3 90.4L87.9 90.4L88.1 90.3L88.5 90.2L88.7 90L89.2 89.9L89.5 89.9L89.6 89.7L89.4 89.5L89.5 89.4L89.7 89.2L89.8 89L90 88.8L90.1 89L90.2 89.4L90.1 89.6L90.2 89.7L90.3 89.3L90.3 89L90.5 88.6L90.2 88.5L90.3 88.1L90.4 87.9L90.6 87.7L90.6 87.5L90.8 87.1L90.8 86.9L91 86.7L91.2 86.6L91.4 86.4L91.6 86.2L91.7 86L92.1 85.8L92.2 85.9L92 86.1L91.8 86.3L91.6 86.6L91.3 86.8L91.3 87L91 87.3L91 87.4L90.9 87.6L91 87.9L91 88.2L91.2 88L91.3 88L91.3 87.8L91.5 88L91.6 87.8L91.7 88L91.9 87.7L92 87.7L92.1 87.9L92.1 88.1L92.3 88.2L92.5 88L92.7 88.1L92.9 88.2L93 88.4L93.2 88.6L93.2 88.8L93.1 89.1L93 89.3L92.9 89.4L92.8 89.3L92.7 89.6L92.5 89.6L92.4 89.8L92.5 89.9L92.6 90L92.6 90.2L92.7 90.1L92.8 90L92.9 89.9L93 89.9L93.3 89.8L93.5 89.8L93.7 90L93.9 90.2L93.7 90.4L93.4 90.7L93.3 90.7L93.2 90.5L92.9 90.6L93.1 90.8L93.3 90.9L93.5 91.1L93.7 91.2L94 91.3L93.9 91.5L93.7 91.6L93.5 91.8L93.6 92L93.5 92.3L93.4 92.4L93.2 92.6L93 92.6L92.9 92.9L92.7 92.9L92.5 92.8L92.5 92.9L92.3 93L92.3 92.9L92 92.9L91.9 93.1L91.6 93.1L91.4 93.2L91.2 93.2L91.1 93.4L90.9 93.4L90.7 93.5L90.4 93.6L90.1 93.6L90 93.7L90 93.9L90 94.1L89.8 94.2L89.8 94.5L89.7 94.8L89.5 94.7L89.5 94.9L89.7 95L89.6 95.1L89.1 95L89.2 95.4L89 95.2L88.9 95.4L89 95.5L88.9 95.6L88.6 95.7L88.3 96L88.2 96.1L88.1 96.3L87.8 96.4L87.7 96.1L87.5 96.3L87.4 96.7L87.4 96.9L87.2 97L87.3 97.2L87.5 97.1L87.6 97.2L87.6 97.4L87.6 97.6L87.5 97.7L87.2 97.7L87.2 97.9L86.9 98.2L87 98.4L86.9 98.7L87.2 98.7L87.2 98.8L87.1 99L86.7 99L87 99.1L87 99.3L87.4 99.4L87.6 99.2L87.8 99.1L88.3 99.1L88.6 99.3L88.5 99.5L88.3 99.6L87.8 99.8L87.6 99.6L87.5 99.9ZM89.6 97.1L89.5 97L89.5 97.3L89.2 97.4L89.4 97.6L89.2 97.7L88.8 97.6L88.9 97.7L89.4 97.8L89.4 97.9L89.3 98L89.1 98.1L88.7 98.1L88.4 98L88.1 98.2L87.9 98.4L87.7 98.4L87.7 98.1L87.6 98.2L87.4 98.1L87.6 97.9L87.7 97.6L87.8 97.5L87.7 97.1L87.8 96.7L87.9 96.5L88.1 96.5L88.3 96.4L88.3 96.2L88.6 96.2L88.6 96.3L88.6 96.5L88.5 96.7L88.5 96.9L88.7 96.7L88.8 96.4L88.9 96.2L89.1 96.2L89.1 96.6L89.2 96.4L89.4 96.3L89.6 96.5L89.7 96.7L89.8 97.1L89.6 97.1ZM89.4 98.3L89.1 98.1L89.5 98L89.5 98.1L89.5 98.2L89.4 98.3ZM89.2 101.6L89.1 101.7L89.1 101.6L89.1 101.4L89 101.3L89.2 101.1L89.3 101.1L89.4 101.1L89.4 101.4L89.2 101.6ZM89.1 100.4L88.8 100.5L89.1 100.6L89.3 100.9L89 101.2L88.7 101.2L88.8 101.4L89 101.5L88.9 101.8L88.7 102L88.6 102.1L88.7 102.3L88.5 102.5L88.5 102.9L88.4 103.1L88.1 103.4L87.8 103.2L87.7 103.6L87.7 103.9L87.5 104.3L87.6 104.5L87.3 104.6L86.7 104.5L86.8 104.3L87 103.9L86.9 103.7L86.7 103.7L86.5 104L86.4 104.3L86.4 104.4L86.1 104.7L85.8 104.8L85.8 104.5L85.9 103.9L85.7 104.3L85.5 104.6L85.4 104.7L85.3 104.1L85.4 103.6L85.5 103.4L85.7 103.4L85.8 103.1L85.9 102.7L85.8 102.8L85.6 102.3L85.7 102.1L86 102.1L86.1 102.5L86.2 102.8L86.4 102.7L86.6 102.7L87 102.8L87.2 102.7L87.3 102.6L87.4 102.3L87.5 102L87.6 102.1L87.8 101.8L87.8 101.7L88 101.6L87.8 101.5L87.7 101.3L87.8 100.7L87.9 100.4L87.9 100.2L88 100.1L88.2 100.2L88.2 100L88.7 100L89 100.1L89.2 100.2L89.3 100.5L89.1 100.4ZM89.4 98.8L89.3 98.9L89.3 99.1L89.2 99.2L89 99L88.8 99.2L88.5 99.1L88.3 98.9L88.4 98.8L88.6 98.7L88.9 98.4L89.1 98.5L89 98.7L89.3 98.6L89.4 98.8ZM100.1 94.4L100.3 94.5L100.4 94.7L100.2 94.8L100.1 94.7L100.1 94.5L100.1 94.4ZM88.9 99.6L88.6 99.4L88.6 99.3L89 99.3L89.2 99.3L89.4 99.4L89.5 99.5L89.4 99.7L89.3 99.9L89 99.8L88.9 99.6ZM89.4 96.1L89.4 95.7L89.6 95.7L89.9 95.6L90 95.7L90.2 96L90.4 96.2L90.7 96.3L90.5 96.6L90.4 96.7L90.2 97L90 97L89.8 97.1L89.8 96.9L89.7 96.5L89.5 96.2L89.4 96.1ZM99 94.6L99.2 94.5L99.3 94.7L99.4 94.9L99.3 95L99.2 94.9L99 94.6ZM89.8 99.6L89.6 99.5L89.7 99.4L89.8 99.3L90 99.3L90.1 99.5L89.9 99.6L89.8 99.6ZM99.4 95.1L99.7 94.9L100 95.2L100.2 95.2L100.2 95.5L99.9 95.7L99.8 95.7L99.6 95.5L99.4 95.1ZM90.6 99.2L90.4 99.2L90.2 99.2L89.9 99.1L89.8 98.9L89.9 98.8L90.2 98.9L90.2 98.7L90.5 98.8L90.5 98.9L90.6 99L90.5 99.2L90.6 99.2ZM90.6 98.2L90.4 98.2L90.5 98.3L90.4 98.4L90.2 98.4L90.1 98.3L90.1 97.9L90 97.6L90.1 97.4L90.2 97.4L90.3 97.7L90.5 97.3L90.6 97.2L90.9 97.5L91 97.6L90.7 97.8L90.4 97.9L90.3 98L90.7 98L90.9 98.2L90.8 98.2L90.6 98.2ZM102.7 104.3L102.7 104.4L102.4 104.7L102.2 104.6L102 104.8L101.8 104.6L101.8 104.5L101.6 104.3L101.5 103.9L101.4 104L101.3 103.6L101.1 103.5L101 103.2L101 102.7L101.1 102.4L101 102.2L101 102L101.2 102L101.3 102.1L101.3 102.5L101.4 102.9L101.5 103.4L101.8 103.8L102 104.1L102.3 104.3L102.7 104.3ZM90.7 99.6L90.5 99.7L90.5 99.8L90.4 99.9L90.2 99.9L90.2 100L90.1 100.1L90 100.2L90 100.4L90.1 100.5L90.2 100.7L90.2 100.9L90 101L89.9 101.1L89.7 101.1L89.6 100.9L89.7 100.8L89.6 100.4L89.6 100.2L89.6 100L89.7 99.7L90 99.7L90.2 99.7L90.4 99.6L90.4 99.4L90.6 99.3L90.7 99.4L90.7 99.6ZM91.4 97.7L91.1 97.6L91 97.5L91.1 97.4L91 97.1L91 97L91.2 96.9L91.4 97.2L91.5 97.5L91.4 97.6L91.4 97.7ZM101.1 98.4L101.3 98.3L101.2 98.3L101.1 98L101.2 97.7L101.3 97.6L101.5 97.5L101.7 97.6L102 97.8L102.2 97.8L102.2 97.7L102.2 97.5L102.1 97.4L102.3 97.3L102.2 97.2L102.1 97.1L101.9 96.7L102.1 96.6L101.9 96.1L101.6 96.3L101.5 96.1L101.4 95.9L101.5 95.6L101.6 95.4L101.8 95.4L102 95L102 94.8L101.6 95L101.5 94.7L101.3 94.6L101.2 94.3L101.1 94.3L100.9 94.1L100.8 94.5L100.5 94.5L99.7 93.7L99.8 93.4L99.6 92.9L99.1 92.8L98.8 92.6L98.8 92.4L98.9 92.1L98.8 92L98.6 92L98.3 91.9L98.1 91.8L97.8 91.8L97.6 91.3L97.4 91.4L97.5 91.7L97.4 91.9L96.9 91.7L96.6 91.7L96.2 91.5L96 91.3L96 89.7L96.2 89.5L96.5 89.5L96.3 89.3L96.2 88.9L96.1 88.8L96.1 88.7L96.2 88.6L96.5 88.7L97.1 88.4L97.3 88.4L97.6 88.1L98 87.9L98.1 87.7L98.3 88.1L99 87.9L99 88L99.3 87.9L99.5 88.1L99.7 87.8L100.1 87.5L100.1 87.4L99.9 87.2L100.1 86.6L100.3 86.7L100.5 86.4L100.5 86.2L101 86.1L101.2 85.7L101.6 85.8L101.8 85.4L102.4 85.2L102.3 85.5L102.2 86.1L101.9 87L101.6 87.5L101.3 87.6L101.2 87.8L100.9 87.7L100.3 88.1L99.8 88.4L99.4 88.6L99 89.1L99.3 89.1L99.5 88.8L100.1 88.6L100.1 89.1L100.7 89.2L101.4 88.7L101.4 88.4L101.9 88.6L102.2 88.7L102 88.9L102.3 89.2L102.7 89.1L103.2 89.6L103.8 89.9L104.9 89.7L106.3 89.7L106 89.4L106.1 89.1L106 88.8L105.7 88.9L105.5 88.7L105.5 88.1L105.7 87.8L106.2 87.6L106.5 87.3L107 86.8L107.8 86.7L108 86.5L108.7 86.5L109.3 86.4L109.7 86.4L110.1 86.6L110.3 86.7L110.3 87L110.8 87.2L111 87.1L111 87.2L111.2 87.2L111.4 87.2L111.6 87L111.8 87.1L111.9 87.1L112.1 87.1L112.3 87.3L112.5 87.3L112.6 87.2L112.7 87.3L112.6 87.1L112.7 86.8L112.8 86.3L113 86L113.3 85.7L113.6 85.7L113.9 85.9L114.2 86.1L114.5 86.3L114.3 86.5L114 86.6L113.8 87L113.6 86.8L113.4 87.3L113.5 87.4L113.6 87.4L113.7 87.5L113.6 87.6L113.6 87.7L113.6 87.8L113.4 87.8L113.3 87.8L113.1 87.9L113 87.9L113.1 88.1L113.1 88.3L113.5 88.7L113.8 88.8L114.1 89.1L113.8 89L113.7 89.2L113.3 89.1L113.3 89.4L113.5 89.6L114 89.8L114.3 89.8L114.5 90.1L114.8 90.2L114.9 89.9L114.9 89.6L115 89.5L115 89.2L114.5 89L114.5 88.6L114.3 88.4L114.5 88.2L114.9 88.6L115.2 88.6L115.5 88.9L115.9 88.9L115.9 88.4L116.1 88.1L116.3 87.7L116.5 87.3L116.7 87.1L117 87.3L117.1 87.1L117.1 86.8L117.4 86.7L117.7 86.6L117.9 86.8L118.4 86.8L119.1 86.9L119.7 87L120.4 87.4L121 87.9L121.3 88.3L121.6 88.5L121.5 88.7L121.8 88.9L122.3 89.5L122.5 89.9L123 89.9L123.1 90.2L122.9 90.4L122.7 90.4L122.8 91L122.9 91.2L123.4 91.8L123.9 92.1L124.2 92.1L124.5 91.6L124.9 91L125 90.4L125.2 90L125.9 89.5L126.6 89.4L127 89.7L127.4 90.3L127.9 90.6L128.5 91.2L128.3 91.5L128 91.4L127.8 91.9L127.9 92.3L127.7 92.6L127.4 93L127.3 93.5L127.4 94L127.1 94L127.2 94.4L127.6 94.4L128.3 94.6L128.7 94.7L128.9 94.7L128.9 94.3L129.2 94L129.6 93.8L129.7 93.4L129.7 93.1L129.9 92.7L129.9 92.6L130 92.2L130.2 91.9L130.5 91.8L130.7 91.8L130.8 91.7L131.1 91.6L131.1 91.3L131.4 91L131.5 91L131.7 91.4L131.5 92.1L131.3 92.9L131.2 93L131 93.4L130.6 93.5L130.5 93.8L130.1 93.8L130 94L129.9 94.2L129.7 94.3L129.5 94.7L129.4 95L129.6 95.1L129.4 95.2L129.1 95.2L128.7 95.1L128.4 95.2L128.1 95.1L127.9 95.3L127.4 95.3L127.2 95.6L126.8 95.8L126.3 96L126 96.2L126.2 96.6L126.6 97.1L126.6 97.4L126.5 97.8L126 97.6L125.6 97.8L125.1 98.2L125 98.1L125 98.4L124.6 98.8L124.4 99L124.2 99L124 99.1L123.8 99.3L123.8 99.8L123.9 99.7L124.2 99.9L124.1 100.1L124.2 100.1L124.1 100.3L124.1 100.5L124.2 100.5L124.2 100.9L124.3 101.5L124.6 101.5L124.8 101.8L125 102.5L125.5 103.1L125.7 103.5L125.9 104.1L126.1 104.1L126.1 104.4L126.2 104.9L126.2 105.1L126.5 105.4L127 105.3L127.4 105.4L127.7 105.7L128.4 105.8L128.4 106.1L128.6 106.4L128.8 106.3L128.8 106.8L129 107.1L129.1 107.3L128.6 107.8L128 107.9L127.5 108L127.3 108.2L126.8 108.3L126.3 108.3L126 108.4L125.3 108.7L124.5 108.6L124 108.6L123.5 108.5L123.1 108.5L123.1 109.2L122.9 109.6L122.2 110L122.2 109.7L122 109.8L121.4 110.2L121.2 110.5L120.9 110.5L120.5 110.7L120.2 111.5L119.8 112.2L119.6 112.8L119 113.5L118.7 113.9L118.4 114.3L117.8 114.2L117.7 114.3L117.5 114.7L117.4 115.2L117 115.5L116.5 115.7L116.1 116L115.6 116L115 115.9L114.9 116.1L114.6 116.2L114.6 116.4L114.4 116.6L114.6 116.7L114.7 116.8L115 116.9L115.4 117L115.6 116.9L115.8 116.9L116.1 116.8L116.2 116.9L116.3 117L116.5 117L116.6 117L116.8 117L116.9 117L116.6 116.9L116.6 116.6L116.6 116.5L116.8 116.5L117 116.6L117.1 116.9L117.3 116.9L117.3 116.8L117.4 116.9L117.6 116.5L117.9 116.2L118 116L118 115.6L118 115.1L117.9 114.8L117.9 114.6L117.9 114.5L118.1 114.7L118.1 114.8L118.4 114.9L118.8 114.9L119 114.7L119.3 114.5L119.5 114.3L119.8 114.2L120 114.1L120.1 114L120.2 114.1L120.3 114.3L120.4 114.5L120.4 114.7L120.5 115L120.4 115.2L120.4 115.4L120.5 115.5L120.8 115.6L120.8 115.7L120.7 115.9L120.6 116.2L120.8 116.4L120.8 116.5L120.6 116.8L120.6 117L120.7 117.1L120.7 117.4L120.5 117.6L120.4 118L120.2 118.2L120.1 118.6L120.2 118.8L120.3 118.9L120.1 119.4L119.7 120.2L119.6 120.7L119.4 120.9L119.3 121L119.2 121.4L119 121.7L118.7 122.1L118.7 122.2L118.7 122.3L118.6 122.5L118.6 122.6L118.4 122.8L118.3 122.9L118 123.2L117.7 123.1L117.6 122.9L117.4 122.9L117.2 122.8L116.9 122.8L117 122.7L116.8 122.6L116.8 122.5L116.7 122.3L116.5 122.3L116.3 122.3L116.2 122.2L115.9 122.3L115.4 122.2L115.1 122L114.6 122L114.4 122.1L113.9 122L113.7 121.8L113.6 121.6L113.1 121.5L112.8 121.5L112.5 121.6L112.3 121.5L112.2 121.4L112 121.3L111.8 121.3L111.5 121.1L111.1 121L110.7 120.9L110.6 121.1L110.5 120.8L110.4 120.7L110.4 120.5L110.3 120.5L110.3 120.7L110.4 121L110.4 121.3L110.4 121.4L110.2 121.4L109.9 121.3L109.3 121L109.7 121.3L110.2 121.5L110.8 121.9L111.1 121.9L111.3 122.1L111.9 122.2L111.9 122.3L112.1 122.5L112.7 122.5L112.9 122.5L113.2 122.7L113.2 122.8L113.5 123.1L114 123.4L114.2 123.4L114.5 123.3L115 123.5L115.4 123.7L115.7 123.7L116.5 123.5L116.9 123.5L117.3 123.4L117.5 123.4L117.8 123.3L118 123.3L118.1 123.5L117.9 123.8L118.2 123.7L118.4 123.6L118.6 123.7L118.9 123.6L119.1 123.4L119.4 123L119.8 122.5L120 122L120.2 121.8L120.3 121.6L120.5 121.3L120.6 121.2L120.7 121L120.9 120.7L121 120.4L121.1 120.2L121.2 120.3L121.3 120.5L121.5 120.6L121.5 120.8L121.8 121.2L122 121.7L122.1 122.4L122.2 123.1L122.2 123.8L122.2 124.8L122 125.5L121.6 126.4L121.4 127.1L121.2 127.9L121.2 128.2L121.2 128.3L120.9 128.8L120.9 129L120.7 129.2L120.8 129.5L120.8 129.7L120.9 130L120.7 130.3L120.8 130.9L121 131.1L121.4 130.9L121.5 131L121.5 131.3L121.6 131.4L121.7 131.6L122.1 131.6L122.6 131.7L122.8 131.6L123 131.7L123.3 132L123.6 132.2L124 132.7L124.3 132.8L124.3 133.1L124.2 133.6L124 134.1L123.6 134.6L123 135.3L122.6 136.2L122.4 136.4L122.1 137L121.9 137.3L122 137.5L122.5 137.6L122.8 137.7L122.8 137.8L122.9 137.7L123.2 138L123.2 138.3L123.4 138.2L123.4 138.4L123.2 138.7L122.7 139.2L122 140L121.8 140.3L121.9 140.4L122.1 140.3L122.2 140.5L122.1 140.9L122.2 141.3L122.2 141.5L121.8 142L121.7 142.2L121.5 142.5L121.4 142.8L121.1 143.3L120.4 144.2L120 144.7L119.5 145.2L118.7 145.8L118.3 146L118.3 146.1L117.8 146.3L117.4 146.6L116.5 146.9L116 147.2L115.7 147.3L114.9 147.8L114.2 148.1L113.7 148.4L113.3 148.6L112.9 148.6L112.6 148.7L112.2 148.6L112.2 148.7L112 148.6L112 148.4L111.6 148.2L111.8 148.1L111.7 147.8L111.1 147.6L110.5 147.4L109.8 147L109.1 146.9L108.7 146.7L108.4 146.4L108.1 146.1L107.7 145.6L107.6 145.1L107.4 144.9L107.1 144.8L106.6 144.6L106.1 144.2L105.8 144L105.1 143.7L105 143.4L104.9 143.2L104.9 142.8L105.1 142.4L105.1 142.2L105.3 141.8L105.4 141.6L105.8 141.2L105.9 141L105.9 140.7L105.9 140.5L105.6 140.4L105.4 140.2L105.1 140L105.2 139.9L105.3 139.7L105 139.3L104.8 139.1L104.4 138.9L104.5 138.8L104.4 138.7L104.1 138.4L103.5 138.1L102.7 137.8L102.2 137.6L101.8 137.2L101.8 137.1L101.9 136.9L102 136.6L102.1 136.3L101.9 136.2L102.1 135.7L102.1 135.4L101.8 135.2L101.5 135.2L101.4 135L101.2 135L101.2 134.8L100.6 135.1L100.4 135.1L100.1 135.2L99.6 135.3L99.3 135L99.1 134.7L98.6 134.5L98.2 134.5L97.6 134.6L97.1 134.6L96.6 134.7L95.7 135L95.3 135.1L94.8 135.2L94.2 135.1L94 135.1L93.5 135L93.2 134.9L92.4 135L92 135L91.4 135.1L91.3 135.1L91.1 135.1L90.5 134.8L90 134.4L89.5 134.1L89.2 133.7L89 133.6L88.6 133.4L88.4 133.1L88.3 132.9L88.3 132.6L88.1 132.3L87.9 132.1L87.8 132L87.7 131.9L87.7 131.7L87.6 131.6L87.5 131.5L87.2 131.3L87 131.2L86.9 131L86.8 130.8L86.8 130.7L86.8 130.4L86.9 130.2L86.8 129.9L86.6 129.7L86.8 129.6L87.2 129.4L87.3 129.3L87.4 129.1L87.6 128.9L87.7 128.5L87.8 128.1L87.8 127.9L87.9 127.7L87.8 127.5L87.6 127.3L87.7 127.1L87.8 126.9L88 126.9L88.2 126.7L88.2 126.6L88.5 126.3L88.8 126.2L89 126.1L89.1 125.9L89.2 125.7L89.4 125.5L89.8 125.4L90.1 125.1L90.4 125L90.8 125L91.2 124.8L91.5 124.8L91.9 124.5L91.9 124L92.1 123.6L92.2 123.4L92.5 123.2L92.9 123.1L93.2 122.9L93.5 122.5L93.7 122.3L94 122.3L94.2 122.5L94.6 122.5L95 122.6L95.1 122.6L95.5 122.4L96 122.4L96.2 122.2L96.6 122.1L97.2 122L97.8 121.9L98 121.9L98.4 121.7L98.8 121.7L99 121.8L99.2 121.7L99.6 121.5L99.9 121.5L99.9 121.7L100.2 121.5L100.1 121.8L100.1 122L100.3 122L100.3 122.4L100.1 122.6L100.2 122.9L100.4 122.8L100.5 123L100.7 123L101.2 123.1L101.3 123L101.7 123L102.3 123L102.6 123.3L103 123.3L103.6 123.3L104.1 123.3L104.2 123.2L104.4 122.9L104.2 122.6L104.2 122.4L104.4 122.1L104.7 122L105.2 121.8L105.4 122L105.6 121.9L105.7 121.9L106.1 121.8L106.3 121.9L106.8 121.6L107.2 121.5L107.6 121.4L107.8 121.4L108 121.1L108.1 120.9L108.4 120.7L108.7 120.6L108.9 120.7L108.9 120.5L109.3 120.4L109.6 120.3L109.7 120.1L109.7 119.9L109.6 119.7L109.5 119.4L109.5 119.2L109.5 118.9L109.5 118.5L109.4 118.5L109.2 118.3L109.2 118.1L109 118L109 117.8L108.8 118L108.5 118.1L108.4 118.4L108 118.8L107.6 118.8L107.2 119L107.2 119.2L107 119.3L106.6 119.3L106.2 119.5L105.8 119.3L105.5 119.2L105.5 118.8L105.2 118.7L105.4 118.2L105.9 117.9L105.8 117.6L106.5 117.3L106.7 116.9L106.9 116.5L107.4 116.2L108.1 116.1L108.6 115.9L108.9 115.6L109.1 115.4L109.3 115L109.2 114.8L109 114.7L108.7 114.7L108.5 114.8L108.4 114.8L107.8 114.8L107.4 114.9L107 114.8L107.2 114.6L107.2 114.2L107 114.2L107.2 113.8L107.1 113.7L107 113.9L106.8 114.1L106.7 114.3L106.5 114.5L106.4 114.8L106.5 115L106.7 115L107 114.8L107 114.9L106.7 115.2L106.5 115.7L106.3 115.7L106.3 115.5L105.9 115.6L105.9 115.5L106.1 115.2L106 115.2L105.5 115.3L105.4 115.2L105.2 115.4L105.2 115.7L105.1 116.1L105.2 116.2L105.1 116.3L105 116.3L105.1 116.8L105.1 117L105.1 117.4L105.3 117.5L105.4 117.6L105.8 117.6L105.7 117.7L105.4 117.9L105.3 118.1L105.1 118.5L105 118.3L104.9 118.3L104.7 118.3L104.5 118.4L104.2 118.7L104.5 118.8L104.4 118.9L104.2 119L103.9 118.9L103.9 119L104.1 119.2L104.3 119.3L104.2 119.4L104.5 119.5L104.7 119.5L104.8 119.8L104.5 119.8L104.6 119.9L104.4 120.1L104.7 120.4L104.5 120.5L104.1 120.4L103.9 120.2L103.7 119.9L103.5 119.8L103.2 119.6L103.2 119.5L103.1 119.5L102.8 119.4L102.7 119.2L102.7 118.9L102.7 118.8L102.6 118.8L102.5 118.8L102.4 118.7L102.2 118.6L101.9 118.6L101.6 118.5L101.3 118.5L101 118.3L101 118.2L100.8 118.1L100.8 117.9L100.6 117.9L100.5 118.1L100.4 118L100.4 117.9L100.4 117.8L100.2 117.8L99.9 118L100 118.2L100 118.3L100.1 118.5L100.5 118.7L100.7 118.9L101.2 119.2L101.4 119.1L101.6 119.2L101.5 119.3L101.8 119.3L102.1 119.4L102.5 119.5L102.5 119.7L102.3 119.6L101.9 119.6L101.9 119.9L102.2 120L102.2 120.2L102.1 120.3L102 120.7L101.8 120.7L101.8 120.6L101.8 120.4L101.9 120.3L101.7 120.1L101.5 119.9L101.3 119.9L101.2 119.7L100.9 119.7L100.8 119.6L100.5 119.6L100.2 119.5L99.8 119.3L99.5 119.1L99.4 118.7L99.2 118.7L98.9 118.6L98.8 118.7L98.6 118.9L98.5 119L98.2 119.2L97.5 119.2L97 119.4L97 119.6L97.1 119.9L96.7 120.1L96.3 120.2L96.3 120.4L96 120.6L95.9 121L96 121.2L95.8 121.4L95.7 121.6L95.5 121.7L95.2 122L94.7 122L94.3 122L94.1 122.1L93.9 122.2L93.7 122.2L93.6 122L93.5 121.8L93.2 121.7L93 121.8L92.8 121.7L92.6 121.7L92.7 121.4L92.7 121.1L92.6 121.1L92.5 120.9L92.6 120.6L92.7 120.5L92.8 120.3L92.9 120.1L92.9 119.9L92.9 119.8L92.9 119.6L92.9 119.4L92.8 119.2L93.3 118.9L93.7 119.1L94.2 119.1L94.5 119.2L94.8 119.2L95.4 119.2L95.5 119L95.6 118.2L95.3 117.7L95.1 117.5L94.6 117.3L94.6 117L95 117L95.5 117.1L95.4 116.6L95.7 116.8L96.4 116.5L96.5 116.1L96.7 116L96.9 116L97.1 115.8L97.3 115.2L97.6 115L97.8 115L97.9 114.9L98.1 114.8L98.1 114.9L98.3 114.7L98.2 114.6L98.1 114.3L98 114.1L97.9 113.7L98 113.6L98 113.4L98.2 113.4L98.3 113.3L98.4 113.1L98.5 113.3L98.4 113.5L98.5 113.6L98.6 113.6L98.6 113.8L98.5 113.7L98.4 114.1L98.5 114.3L98.5 114.4L98.8 114.5L98.8 114.6L99.1 114.5L99.2 114.3L99.5 114.4L99.7 114.5L99.8 114.4L100.1 114.1L100.4 113.8L100.7 113.8L100.7 113.9L100.9 113.8L100.9 113.7L101.2 113.4L101 113.1L100.9 112.8L101 112.5L101.1 112.3L101.4 112.5L101.6 112.4L101.5 112.1L101.4 111.9L101.3 112L101.2 111.9L101 111.7L101.3 111.5L101.5 111.3L101.7 111.3L101.9 111.1L102 110.8L101.7 110.8L101.4 111L101.1 111.3L100.8 111.5L100.6 111.3L100.4 111.3L100.3 110.9L100.1 110.6L100.1 110.3L100.1 110L100.3 109.4L100.4 109.3L100.3 109.1L100 109.1L99.8 109.3L99.7 109.6L99.9 109.8L99.7 110.3L99.5 110.7L99.5 111.3L99.7 111.6L100 111.7L99.9 112.2L99.7 112.4L99.9 113.1L99.8 113.5L99.5 113.5L99.5 113.9L99.2 114L99 113.6L98.7 113.2L98.5 112.6L98.3 112.4L97.9 113L97.6 113.1L97.3 112.9L97.2 112.5L97 111.5L97.2 111.3L97.6 110.9L97.9 110.4L98.1 109.7L98.3 108.9L98.5 108.5L98.7 107.9L99 107.6L99.2 107.5L99.3 107.1L99.5 107L99.7 106.9L100.2 106.9L100.1 107.1L100.4 107.2L100.4 107L100.8 107.1L101.1 107L101.9 107L102.1 107L102.3 107.2L102.3 107.5L102.2 107.8L101.4 108L101.3 108.1L101.7 108.2L102.1 108.7L102.3 108.6L102.5 108.6L102.4 108.5L102.2 108.4L102.2 108.2L102.7 108.1L102.8 107.9L102.5 107.8L102.5 107.2L102.6 107.1L102.9 107.1L102.7 106.8L102.5 106.8L102.4 106.5L102.1 106.4L102.5 106.2L102.7 106.3L102.6 106.5L102.8 106.7L103 106.7L103.1 106.4L102.9 106.2L103 105.8L103 105.2L103.1 105.1L103.2 105.4L103.4 105.2L103.3 105.1L103.5 104.8L103.5 104.5L103.8 104.5L103.6 104.2L103.3 104.2L103.3 104.1L103.6 103.8L103.8 103.6L104.4 103.3L104.3 103.1L104 103.2L103.9 103.2L103.8 103.3L103.7 103.2L103.3 103.2L103.2 103.1L102.9 102.7L102.6 102.5L102.6 102.4L102.8 102.1L103 102.2L103.3 102.4L103.5 102.4L103.7 102.4L104.3 102.6L104.6 102.5L104.8 102.7L105.3 103.1L105.4 103L105.3 102.9L105.2 102.7L105 102.6L104.9 102.4L104.6 102.4L104.4 102.3L104.3 102.4L104.1 102.4L103.7 102.2L103.3 102.2L103.1 101.9L102.8 101.9L102.9 101.8L103.1 101.8L103.5 102L103.6 101.8L103.3 101.8L103.2 101.6L103.2 101.3L103.5 101.1L103.1 101.2L102.7 101.1L102.6 100.9L102.7 100.6L102.6 100.4L102.4 100.4L102.1 100.3L102.1 100.2L101.9 100L101.9 99.7L101.8 99.7L101.7 99.4L101.8 99.3L101.5 99.1L101.5 99L101.3 99L101.1 98.9L100.9 98.7L101 98.6L101.1 98.6L101.1 98.4ZM111.2 113.2L111.6 113.2L111.7 113.1L111.8 113.1L111.7 113.4L111.9 113.6L111.9 113.8L111.9 113.9L112.1 114L112.4 114.2L112.7 113.9L113 113.9L113.4 113.5L113.7 112.9L113.6 112.9L113.4 112.7L113 112.4L112.8 112.6L112.6 112.3L112.4 112.5L112.2 112.2L112.5 112L112.6 111.7L112.2 111.8L112 111.7L111.9 112L112.1 112.2L111.8 112.1L111.7 112.1L111.6 111.9L111.5 111.9L111.1 112.1L110.7 112L110.5 112.1L110.4 112L110.7 111.8L110.4 111.6L110.6 111.3L110.8 111.1L110.5 110.8L110.3 110.7L110.1 111L109.8 111.1L109.7 111.5L109.6 111.8L109.7 112.1L109.6 112.3L109.7 112.9L110.1 112.9L110.3 113.1L110.9 113.2L111.2 113.2ZM90.9 99.7L90.8 99.6L90.9 99.4L91 99.4L91 99.6L90.9 99.7ZM91.2 98.2L91.2 98L91.4 98L91.4 98.1L91.4 98.2L91.3 98.3L91.2 98.2ZM98.1 104.6L98 104.8L97.8 104.8L97.8 104.6L97.7 104.5L97.9 104.4L97.9 104.5L98.1 104.6ZM91.6 98.4L91.5 98.3L91.6 98.2L91.7 98.3L91.6 98.4ZM91.1 99.5L91 99.4L91.1 99.3L91.3 99.3L91.5 99.3L91.4 99.4L91.4 99.5L91.2 99.5L91.1 99.5ZM91.2 99.2L91.1 99.2L91.1 99L91.3 98.9L91.4 98.7L91.5 98.9L91.6 98.8L91.7 98.8L91.6 99L91.5 99.1L91.2 99.2ZM100.7 98.7L100.9 99.2L100.4 99.1L100.3 99.1L100.3 99L100.5 98.8L100.7 98.7ZM97.3 104L97.7 104.2L97.5 104.5L97.6 104.8L97.5 104.9L97.6 105.2L97.5 105.3L97.2 105.1L97.3 104.9L97.1 104.8L96.9 104.5L96.8 104.2L96.9 104L97 104.2L97.1 104.1L97.1 104L97.2 103.9L97.3 104ZM97.7 103.6L97.9 103.6L97.9 103.9L97.7 104L97.5 104.1L97.4 103.9L97.3 104L97.2 103.8L97.4 103.6L97.5 103.7L97.5 103.6L97.7 103.6ZM99 102.5L99 102.6L99.1 102.7L99 102.8L98.9 102.8L98.9 102.7L98.7 102.8L98.8 102.6L98.8 102.5L98.9 102.6L98.9 102.5L98.9 102.4L99 102.4L99 102.5ZM100.5 99.2L100.6 99.4L100.5 99.6L100.4 99.7L100.1 99.8L100 99.9L99.7 99.8L99.6 99.6L99.8 99.5L100.2 99.3L100.5 99.2ZM91.7 100.2L91.6 100.3L91.5 100.2L91.2 100.1L91.1 99.9L91.2 99.8L91.4 99.7L91.5 99.7L91.6 99.8L91.6 99.6L91.8 99.5L92 99.5L92.1 99.6L92.3 99.7L92.4 99.7L92.4 99.8L92.2 99.9L92.1 100L92 100.2L91.7 100.2ZM93.3 101L93.4 101.2L93.4 101.3L93.3 101.4L93.2 101.5L93 101.4L92.9 101.3L92.8 101.3L92.8 101.5L92.5 101.4L92.4 101.4L92 101.4L91.9 101.2L91.8 101.2L91.7 101L91.7 101.1L91.6 101.1L91.4 101.2L91.3 101.2L91.1 101L90.9 101L90.8 100.9L90.7 101L90.8 101.1L90.7 101.1L90.4 100.9L90.4 100.7L90.3 100.4L90.4 100.2L90.4 100L90.6 100L90.7 100.2L91 100.2L90.9 100.5L91.1 100.3L91.2 100.2L91.4 100.2L91.5 100.4L91.6 100.4L91.8 100.3L92 100.2L92 100.4L91.9 100.5L92.1 100.6L92.1 100.4L92.1 100.2L92.2 100L92.4 100L92.5 99.9L92.7 99.9L92.7 100L92.7 100.1L92.8 100.2L93 100.2L93 100.3L92.8 100.4L93.1 100.4L93.2 100.5L93.3 100.7L93.2 100.7L93.3 100.8L93.3 100.9L93.3 101ZM94.8 102.4L94.9 102.8L94.8 102.9L94.6 102.8L94.3 102.7L94.3 102.8L94.5 102.9L94.6 103.1L94.7 103L94.7 103.2L94.6 103.4L94.8 103.3L95.1 103.2L95.2 103.3L95.2 103.5L94.9 103.7L94.8 103.8L94.6 103.8L94.8 103.9L94.6 104.1L94.4 104.4L94.3 104.8L94.3 105.1L94.2 105.1L94 105.1L94.1 105.4L94 105.7L93.8 105.7L93.8 106.1L93.6 106.1L93.7 106.3L93.6 106.4L93.4 106.4L93.2 106.3L93.3 106.6L93.2 106.8L93 106.6L92.9 106.6L93.1 106.8L93.1 107.1L93 107.4L92.8 107.4L92.7 107.2L92.7 106.9L92.6 107.2L92.4 107.3L92.7 107.5L92.9 107.6L92.4 107.8L91.9 107.9L91.4 107.8L91.2 107.7L91 107.7L90.6 108L90.1 108L90 107.9L89.8 107.9L89.5 107.8L89.2 107.9L89 108.1L88.8 108.2L88.3 108.3L88.2 108.6L87.9 108.8L87.5 109L87.3 108.8L87.3 108.3L87 108L87 107.7L87.3 107.4L87.5 106.8L87.6 106.5L87.9 106.3L88 105.9L88.3 105.7L88.4 105.5L88.9 105.4L89.1 105.5L89.3 105.4L89.6 105.2L89.3 105.2L89.2 105.2L89.1 105.1L89.1 104.9L89.3 104.7L89.6 104.6L89.6 104.7L89.7 105L89.8 104.7L89.8 104.5L89.7 104.4L89.7 104.3L90.1 104.2L90.2 104L90.4 103.8L90.7 103.4L90.7 103.2L90.9 103.1L91 102.8L90.9 102.6L90.8 102.3L90.6 102.1L90.7 102L90.9 101.7L91.1 101.9L91.2 102.1L91.2 101.7L91.3 101.4L91.4 101.4L91.7 101.6L92 101.8L92.2 101.8L92.2 101.5L92.4 101.5L92.7 101.6L92.8 101.7L93 101.6L93.1 101.6L93.3 101.7L93.4 101.9L93.3 102L93.6 102L93.6 102.2L93.6 102.3L93.6 102.5L93.6 102.2L93.8 102.1L94.1 102L94.2 102.2L94.3 102.1L94.5 102.1L94.8 102.4Z"/>
<g stroke="#ffdf9a" fill="none" opacity=".1" stroke-width=".7"><circle cx="96" cy="100" r="20.7"/><circle cx="96" cy="100" r="41.3"/><line x1="96" y1="38" x2="96" y2="162"/><line x1="34" y1="100" x2="158" y2="100"/></g>
<path d="M40,64 Q88,112 148,142 L34,162 L34,64 Z" fill="#04070f" opacity=".38"/>
<path d="M40,64 Q88,112 148,142" stroke="#ff9e1b" stroke-width="5" fill="none" opacity=".38"/>
<path d="M40,64 Q88,112 148,142" stroke="#ffd166" stroke-width="2" fill="none"/>
</g>
<circle cx="96" cy="100" r="62" fill="none" stroke="#f5cf74" stroke-width="1.4" opacity=".8"/>
</svg>
